<?xml version="1.0" standalone="no"?>
<!DOCTYPE svg PUBLIC "-//W3C//DTD SVG 20010904//EN"
 "http://www.w3.org/TR/2001/REC-SVG-20010904/DTD/svg10.dtd">
<svg version="1.0" xmlns="http://www.w3.org/2000/svg"
 width="1587.000000pt" height="2245.000000pt" viewBox="0 0 1587.000000 2245.000000"
 preserveAspectRatio="xMidYMid meet">
<metadata>
Created by potrace 1.16, written by Peter Selinger 2001-2019
</metadata>
<g transform="translate(0.000000,2245.000000) scale(0.100000,-0.100000)"
fill="#000000" stroke="none">
<path d="M2767 16438 c-16 -12 -17 -40 -15 -323 2 -243 6 -310 16 -310 20 0
622 607 622 627 0 17 -19 18 -303 18 -227 0 -307 -3 -320 -12z"/>
<path d="M3835 16438 c-23 -12 -122 -108 -293 -282 -64 -65 -123 -124 -130
-130 -59 -50 -66 -72 -26 -82 15 -4 117 -4 227 -1 160 5 205 10 225 23 36 23
447 435 461 462 l12 22 -228 0 c-149 -1 -235 -4 -248 -12z"/>
<path d="M4738 16439 c-32 -18 -468 -462 -468 -475 0 -23 42 -26 247 -22 144
3 205 7 223 17 39 22 470 457 470 475 0 14 -27 16 -227 16 -135 0 -235 -5
-245 -11z"/>
<path d="M5462 16258 c-108 -106 -217 -216 -244 -244 -47 -50 -47 -51 -25 -61
14 -6 103 -9 237 -6 l215 4 150 147 c195 191 325 327 325 341 0 8 -70 11 -231
11 l-232 0 -195 -192z"/>
<path d="M6555 16438 c-11 -6 -123 -114 -249 -239 -159 -158 -227 -232 -223
-243 5 -13 37 -15 217 -15 116 0 222 4 235 9 13 5 129 113 256 239 163 162
230 234 226 245 -6 14 -36 16 -224 16 -145 -1 -225 -4 -238 -12z"/>
<path d="M7226 16216 c-126 -127 -231 -236 -233 -243 -9 -25 37 -31 222 -27
105 2 202 4 216 4 20 0 76 50 262 235 131 130 237 242 237 250 0 13 -35 15
-237 14 l-238 -1 -229 -232z"/>
<path d="M8358 16432 c-46 -30 -458 -450 -458 -466 0 -25 34 -28 248 -24 159
3 205 7 223 20 45 29 469 457 469 472 0 14 -28 16 -227 16 -203 0 -231 -2
-255 -18z"/>
<path d="M9041 16208 c-200 -199 -240 -244 -228 -253 21 -15 398 -19 443 -5
23 8 105 83 264 243 126 127 230 237 230 244 0 10 -50 13 -234 13 l-233 0
-242 -242z"/>
<path d="M10097 16351 c-206 -199 -377 -374 -377 -387 0 -21 52 -25 255 -20
182 5 235 10 235 25 0 4 88 94 196 201 108 107 207 205 219 218 13 12 25 31
28 42 5 19 -1 20 -224 20 l-229 0 -103 -99z"/>
<path d="M11074 16421 c-62 -46 -444 -437 -444 -454 0 -9 8 -18 18 -21 29 -9
405 -4 432 6 33 12 480 461 480 482 0 14 -25 16 -223 16 l-224 0 -39 -29z"/>
<path d="M11903 16348 c-56 -57 -108 -110 -116 -119 -8 -8 -28 -27 -43 -41
-16 -13 -71 -68 -123 -121 -77 -78 -92 -98 -83 -110 18 -21 433 -15 465 6 32
21 477 467 477 478 0 5 -104 9 -238 9 l-237 0 -102 -102z"/>
<path d="M12903 16440 c-11 -5 -125 -113 -252 -241 -163 -164 -228 -236 -221
-243 6 -6 51 -11 100 -12 120 -1 130 -10 130 -114 0 -42 3 -80 6 -83 13 -12
41 13 259 232 245 246 233 226 234 378 1 62 -2 74 -18 83 -24 12 -207 12 -238
0z"/>
<path d="M3197 15807 c-18 -19 -43 -39 -55 -46 -12 -6 -22 -16 -22 -20 0 -5
-50 -58 -112 -117 -61 -60 -129 -129 -152 -154 -23 -24 -54 -57 -71 -72 l-30
-28 0 -232 c0 -178 3 -232 13 -236 7 -2 118 103 247 233 l235 236 0 229 c0
149 -4 231 -10 235 -6 4 -26 -9 -43 -28z"/>
<path d="M13091 15744 c-28 -27 -56 -54 -63 -60 -7 -6 -62 -62 -123 -123 -60
-62 -114 -116 -121 -119 -6 -4 -36 -36 -67 -71 l-57 -64 0 -233 c0 -128 4
-235 9 -238 4 -3 116 101 247 232 l239 237 3 234 c2 150 -1 238 -7 244 -7 7
-26 -5 -60 -39z"/>
<path d="M3004 14710 c-121 -121 -224 -220 -230 -220 -21 0 -24 -30 -24 -261
0 -197 2 -230 15 -235 11 -5 88 66 248 226 l232 233 3 239 c3 200 1 238 -11
238 -8 0 -113 -99 -233 -220z"/>
<path d="M12900 14650 l-240 -241 0 -229 c0 -204 2 -230 16 -230 19 0 462 445
474 475 13 33 13 452 0 460 -6 4 -115 -98 -250 -235z"/>
<path d="M3000 13797 c-122 -123 -228 -234 -236 -248 -20 -36 -20 -469 0 -469
13 0 455 437 477 471 5 8 9 116 9 242 0 183 -3 227 -13 227 -8 0 -114 -100
-237 -223z"/>
<path d="M12940 13799 c-102 -103 -206 -211 -232 -238 l-48 -50 0 -235 c0
-129 4 -237 8 -240 5 -3 117 104 250 237 l242 242 -2 235 c-3 200 -5 235 -18
236 -8 1 -98 -83 -200 -187z"/>
<path d="M2990 12879 l-240 -241 0 -229 c0 -149 4 -230 11 -234 5 -4 118 101
250 232 l239 239 0 231 c0 146 -4 234 -10 238 -6 4 -118 -103 -250 -236z"/>
<path d="M12895 12847 l-235 -236 0 -235 c0 -147 4 -237 10 -241 6 -3 118 102
250 235 l240 241 -2 231 c-2 179 -6 232 -16 236 -7 2 -118 -102 -247 -231z"/>
<path d="M10450 12955 c-279 -41 -484 -113 -666 -235 -99 -67 -275 -242 -337
-336 -179 -272 -258 -597 -244 -999 17 -467 130 -794 360 -1042 92 -98 200
-178 318 -235 204 -98 342 -127 645 -135 361 -9 681 34 997 133 l77 25 0 759
0 760 -580 0 -580 0 0 -260 0 -260 275 0 275 0 0 -304 c0 -259 -2 -305 -15
-310 -8 -3 -79 -13 -157 -22 -446 -51 -712 63 -864 372 -76 156 -114 350 -114
584 1 226 31 374 110 535 81 167 200 291 356 372 127 67 204 84 390 90 226 8
396 -24 604 -111 46 -20 87 -33 91 -28 10 9 199 467 199 480 0 18 -239 98
-395 133 -209 47 -552 63 -745 34z"/>
<path d="M4380 11468 l0 -1463 308 2 307 2 3 560 2 561 163 0 164 0 347 -560
c192 -308 353 -560 360 -560 28 -1 662 -1 669 -1 5 1 -16 36 -46 79 -128 183
-797 1181 -797 1189 1 4 24 19 52 32 144 67 299 207 376 337 113 191 139 450
71 694 -94 339 -390 533 -884 580 -60 5 -332 10 -602 10 l-493 0 0 -1462z
m1105 923 c196 -53 285 -164 285 -358 0 -102 -29 -189 -84 -250 -95 -105 -219
-143 -498 -151 l-188 -5 0 398 0 397 203 -5 c164 -3 217 -8 282 -26z"/>
<path d="M6810 11435 l0 -1435 270 0 270 0 2 941 3 941 575 -938 576 -939 292
-3 292 -2 0 1435 0 1435 -270 0 -270 0 -2 -952 -3 -953 -584 953 -584 952
-284 0 -283 0 0 -1435z"/>
<path d="M3208 12194 c-18 -21 -36 -39 -109 -110 -35 -34 -92 -90 -126 -125
-35 -35 -71 -71 -80 -80 -10 -9 -46 -47 -81 -83 l-62 -67 2 -226 c2 -163 6
-227 15 -230 6 -2 117 101 245 229 l233 232 3 238 c3 208 1 238 -12 238 -8 0
-21 -7 -28 -16z"/>
<path d="M12896 11943 l-236 -236 0 -228 c0 -135 4 -230 10 -234 5 -3 117 103
250 235 l240 242 0 213 c0 205 -3 245 -20 245 -4 0 -114 -106 -244 -237z"/>
<path d="M3221 11292 c-18 -6 -428 -416 -453 -452 -16 -22 -18 -52 -18 -252 0
-148 4 -229 11 -233 5 -4 118 101 250 234 l239 240 0 230 c0 126 -3 232 -7
234 -5 2 -15 2 -22 -1z"/>
<path d="M13097 11256 c-20 -18 -37 -38 -37 -44 0 -5 -11 -13 -25 -16 -14 -4
-25 -11 -25 -17 0 -16 -222 -239 -237 -239 -7 0 -13 -6 -13 -13 0 -8 -22 -35
-50 -61 l-50 -47 0 -235 c0 -195 2 -234 14 -234 19 0 475 458 482 484 9 40 -1
449 -11 453 -6 2 -27 -12 -48 -31z"/>
<path d="M3221 10381 c-7 -5 -116 -111 -242 -236 l-229 -228 0 -233 c0 -151 4
-235 10 -239 6 -4 119 101 250 233 l240 241 0 230 c0 126 -4 232 -8 235 -4 2
-14 1 -21 -3z"/>
<path d="M12893 10156 l-232 -233 -2 -233 c0 -128 3 -236 8 -241 5 -5 113 97
248 232 l240 240 0 232 c0 198 -2 232 -15 234 -8 1 -119 -103 -247 -231z"/>
<path d="M12894 9258 l-234 -234 -1 -215 c-1 -235 -1 -240 12 -253 5 -6 105
88 246 230 l238 239 0 229 c0 181 -3 230 -13 234 -8 2 -117 -99 -248 -230z"/>
<path d="M2999 9255 c-123 -124 -229 -236 -236 -250 -10 -18 -13 -79 -11 -242
3 -200 4 -218 20 -215 21 3 444 427 464 464 12 22 14 71 12 245 -2 145 -7 218
-14 220 -6 2 -112 -98 -235 -222z"/>
<path d="M12902 8368 l-242 -242 0 -233 c0 -189 3 -233 13 -233 16 0 468 451
479 477 9 25 9 445 0 461 -6 8 -82 -62 -250 -230z"/>
<path d="M3001 8352 c-126 -126 -234 -238 -240 -250 -17 -31 -15 -472 2 -472
7 0 119 107 250 238 l237 238 0 231 c0 143 -4 234 -10 238 -5 3 -113 -97 -239
-223z"/>
<path d="M12913 7483 c-126 -125 -235 -238 -241 -249 -7 -13 -11 -99 -12 -235
-1 -265 -2 -249 10 -249 6 0 118 108 250 240 l240 239 0 228 c0 125 -4 234 -9
241 -6 10 -69 -47 -238 -215z"/>
<path d="M3013 7459 c-118 -118 -223 -222 -233 -232 -10 -10 -21 -32 -24 -49
-10 -51 -7 -446 4 -453 10 -6 460 438 479 473 15 28 15 458 0 467 -6 4 -107
-88 -226 -206z"/>
<path d="M12762 6428 c-204 -205 -368 -376 -363 -381 13 -13 732 -9 748 5 17
14 15 739 -3 745 -6 2 -178 -164 -382 -369z"/>
<path d="M3225 6764 c-6 -2 -103 -97 -215 -210 -113 -114 -218 -219 -233 -233
l-28 -28 3 -124 3 -124 115 -3 115 -2 238 235 c130 130 237 243 237 251 0 11
-19 14 -93 14 -59 0 -97 4 -105 12 -8 8 -12 47 -12 109 0 95 -4 110 -25 103z"/>
<path d="M3647 6300 c-131 -132 -244 -240 -250 -240 -7 0 -6 -4 3 -10 9 -6
116 -10 253 -10 l237 0 240 241 c132 132 238 244 235 250 -4 5 -107 9 -243 9
l-236 0 -239 -240z"/>
<path d="M4552 6299 c-133 -132 -242 -244 -242 -248 0 -15 30 -16 255 -11
l220 5 173 170 c95 94 178 175 185 181 35 31 115 129 111 136 -3 4 -108 8
-233 8 l-227 0 -242 -241z"/>
<path d="M5438 6296 c-183 -185 -235 -243 -224 -251 7 -5 40 -9 72 -8 32 1
136 2 229 2 l170 1 238 236 c130 130 237 242 237 250 0 12 -39 14 -242 13
l-243 -2 -237 -241z"/>
<path d="M6351 6300 c-133 -132 -240 -244 -236 -250 4 -6 93 -10 240 -10 l234
0 241 238 c132 130 240 243 240 250 0 9 -54 12 -239 12 l-239 0 -241 -240z"/>
<path d="M7281 6328 c-221 -218 -264 -265 -255 -280 3 -4 103 -8 224 -8 l218
0 40 33 c84 71 453 447 447 457 -4 6 -92 10 -232 10 l-227 0 -215 -212z"/>
<path d="M8381 6531 c-41 -26 -481 -475 -473 -483 16 -16 453 -10 477 6 40 26
475 468 469 477 -7 12 -454 12 -473 0z"/>
<path d="M9041 6300 c-134 -132 -240 -244 -236 -250 4 -6 90 -10 237 -10 l231
0 180 178 c99 97 184 183 191 190 6 7 33 35 59 62 27 27 46 54 42 60 -4 6 -86
10 -234 10 l-228 0 -242 -240z"/>
<path d="M10184 6530 c-35 -14 -488 -466 -480 -479 5 -8 74 -11 226 -11 213 0
265 6 282 33 4 7 104 109 223 228 118 119 215 221 215 227 0 14 -432 16 -466
2z"/>
<path d="M11074 6534 c-6 -3 -118 -111 -247 -242 -177 -177 -233 -239 -224
-247 8 -7 90 -9 242 -5 l230 5 227 229 c126 126 229 237 230 245 3 14 -23 16
-222 18 -124 1 -230 0 -236 -3z"/>
<path d="M11965 6528 c-34 -20 -475 -470 -469 -479 3 -5 111 -9 239 -9 l235 0
241 240 c132 132 238 244 234 250 -9 15 -454 13 -480 -2z"/>
</g>
</svg>
