<?xml version="1.0" standalone="no"?>
<!DOCTYPE svg PUBLIC "-//W3C//DTD SVG 20010904//EN"
 "http://www.w3.org/TR/2001/REC-SVG-20010904/DTD/svg10.dtd">
<svg version="1.0" xmlns="http://www.w3.org/2000/svg"
 width="582.000000pt" height="583.000000pt" viewBox="0 0 582.000000 583.000000"
 preserveAspectRatio="xMidYMid meet">
<metadata>
Created by potrace 1.16, written by Peter Selinger 2001-2019
</metadata>
<g transform="translate(0.000000,583.000000) scale(0.100000,-0.100000)"
fill="#000000" stroke="none">
<path d="M0 2915 l0 -2915 2910 0 2910 0 0 2915 0 2915 -2910 0 -2910 0 0
-2915z m5700 2792 c0 -1 -1256 -1258 -2790 -2792 l-2790 -2790 0 2793 0 2792
2790 0 c1535 0 2790 -1 2790 -3z m-1155 -1714 c19 -20 35 -41 35 -46 0 -6 -34
-43 -75 -83 -41 -40 -75 -77 -75 -81 0 -5 25 -33 55 -63 l55 -54 53 52 c29 29
60 52 69 52 15 0 78 -65 78 -81 0 -3 -25 -31 -57 -62 l-56 -56 66 -68 66 -68
78 78 c43 42 83 77 89 77 14 0 84 -70 84 -84 0 -15 -242 -256 -257 -256 -7 0
-65 55 -130 122 -65 68 -176 182 -248 256 -71 73 -132 140 -133 149 -5 20 226
253 250 253 9 0 33 -16 53 -37z m-240 -354 c39 -57 88 -133 111 -169 23 -36
82 -129 133 -207 50 -79 91 -145 91 -148 0 -16 -95 -105 -112 -105 -23 0 -12
-7 -350 218 -153 101 -278 190 -278 198 0 16 71 84 89 84 15 0 151 -89 319
-209 63 -45 116 -81 118 -81 2 0 -18 30 -44 68 -126 177 -242 354 -242 369 0
20 70 95 85 90 5 -2 42 -50 80 -108z m-202 -511 c142 -139 258 -258 257 -264
0 -14 -57 -71 -84 -86 -16 -8 -53 25 -267 238 -137 137 -252 257 -255 268 -5
15 4 30 34 58 23 21 45 38 50 38 4 0 124 -114 265 -252z m-295 22 c50 -22 53
-40 17 -93 -27 -39 -40 -43 -94 -27 -82 23 -142 -80 -68 -119 32 -17 50 -17
174 4 140 23 203 13 265 -43 97 -88 101 -197 11 -293 -85 -91 -180 -112 -282
-60 -53 27 -56 48 -18 107 29 44 43 48 74 24 57 -45 143 -7 143 63 0 67 -65
86 -194 57 -70 -15 -177 -14 -218 3 -43 18 -104 76 -118 112 -15 38 -12 122 4
153 21 39 85 98 126 116 49 21 127 19 178 -4z m-352 -311 c48 -23 309 -270
348 -329 14 -22 31 -59 38 -84 16 -60 -9 -126 -70 -184 -81 -76 -182 -87 -267
-29 -52 36 -274 260 -313 315 -31 46 -36 61 -36 107 2 91 68 177 161 211 54
19 90 17 139 -7z m-277 -338 c40 -28 100 -98 111 -127 6 -14 10 -47 10 -74 l0
-49 147 -73 c81 -40 149 -79 151 -86 2 -7 -17 -33 -42 -57 -55 -52 -40 -54
-220 37 l-119 60 -21 -21 -21 -21 103 -103 c56 -56 102 -107 102 -112 0 -15
-73 -85 -89 -85 -21 0 -521 500 -521 521 0 17 104 120 173 173 73 56 171 63
236 17z m-375 -312 c59 -16 149 -110 164 -171 7 -25 9 -60 6 -76 -5 -25 -2
-31 17 -37 51 -17 272 -130 277 -143 2 -8 -14 -31 -39 -53 -53 -47 -52 -47
-210 27 -63 30 -120 54 -126 54 -5 0 -17 -8 -26 -18 -15 -17 -11 -24 78 -112
56 -56 95 -103 95 -114 0 -24 -58 -86 -79 -86 -18 0 -521 499 -521 516 0 13
141 151 188 183 57 40 109 49 176 30z m-283 -361 c77 -63 300 -290 316 -322
25 -48 32 -92 21 -136 -13 -48 -83 -131 -132 -154 -44 -21 -128 -20 -174 1
-21 9 -107 87 -194 172 -145 145 -157 160 -173 213 -21 75 -9 124 48 185 58
63 106 84 183 80 54 -2 68 -8 105 -39z m-366 -294 c28 -10 95 -64 95 -75 0
-12 -70 -89 -82 -89 -5 0 -26 11 -46 25 -49 33 -85 32 -112 -2 -27 -35 -21
-73 18 -117 15 -17 80 -82 144 -143 127 -122 150 -133 195 -91 32 30 30 72 -7
118 -16 21 -30 42 -30 46 0 13 73 84 86 84 21 0 100 -97 112 -138 16 -52 15
-75 -4 -120 -21 -52 -70 -100 -129 -128 -110 -52 -163 -29 -353 159 -94 93
-151 157 -164 185 -23 52 -25 129 -4 169 60 118 167 162 281 117z m3312 -820
c27 -17 43 -52 43 -95 0 -28 2 -29 44 -29 53 0 91 -27 117 -84 37 -82 15 -167
-68 -256 -92 -100 -199 -135 -283 -92 -49 24 -82 77 -78 125 3 35 2 37 -25 37
-103 0 -151 114 -94 226 25 49 111 140 157 164 61 33 141 35 187 4z"/>
<path d="M2805 5547 c-9 -45 8 -101 45 -157 16 -25 30 -58 30 -75 0 -45 19
-105 46 -144 18 -27 24 -49 24 -92 0 -48 5 -62 31 -95 17 -22 46 -68 65 -104
18 -36 45 -78 59 -95 24 -29 25 -29 25 -7 0 13 -9 35 -20 49 -11 14 -20 41
-20 59 0 27 -10 44 -50 85 -49 50 -50 52 -50 113 0 51 -5 68 -30 105 -25 37
-30 53 -29 98 2 42 -3 60 -20 81 -62 77 -74 103 -75 154 -1 60 -22 77 -31 25z"/>
<path d="M3054 5544 c3 -9 6 -18 6 -20 0 -2 6 -4 13 -4 7 0 28 -13 47 -29 l35
-29 -2 -88 c-3 -92 6 -118 49 -154 29 -24 47 -87 36 -128 -5 -19 -10 -70 -12
-114 -2 -78 -1 -79 16 -58 11 14 18 39 18 64 0 23 7 51 15 62 8 11 14 42 15
75 0 44 -5 63 -25 90 -13 19 -32 45 -42 59 -14 18 -18 43 -18 101 0 92 -15
119 -91 161 -57 32 -68 34 -60 12z"/>
<path d="M2164 5476 c2 -77 -31 -106 -284 -252 -74 -42 -148 -85 -165 -93 -88
-48 -383 -227 -403 -245 -49 -44 -70 -120 -51 -188 22 -83 122 -149 202 -133
42 9 124 51 282 145 72 42 153 89 180 104 28 15 104 58 170 97 246 143 286
157 346 122 15 -9 31 -14 35 -10 4 4 -18 44 -49 90 -60 89 -128 202 -199 329
-24 43 -48 78 -54 78 -6 0 -11 -18 -10 -44z m62 -91 c10 -15 13 -32 9 -47 -10
-31 -660 -683 -712 -714 -123 -73 -270 30 -233 164 13 51 45 79 180 158 63 37
165 96 225 132 61 35 155 89 210 120 152 84 265 161 277 188 14 30 23 30 44
-1z"/>
<path d="M3910 5245 c-150 -150 -139 -145 -325 -166 -141 -16 -166 -31 -321
-196 -125 -133 -131 -142 -138 -190 -10 -74 -31 -97 -95 -98 l-52 -1 -165
-165 c-90 -90 -163 -168 -161 -174 4 -11 51 -37 111 -60 l39 -15 -186 -189
-187 -188 0 -49 c0 -36 7 -59 25 -86 l25 -36 -20 -44 c-36 -79 -18 -149 49
-194 36 -23 48 -26 95 -21 48 5 57 3 77 -19 13 -13 39 -29 59 -35 31 -10 44
-8 81 9 24 12 60 35 80 52 l36 31 38 -25 c54 -37 107 -38 167 -3 44 26 580
556 831 822 103 109 189 210 203 237 13 25 36 91 51 145 l27 98 120 117 c104
101 118 118 107 132 -8 9 -19 16 -26 16 -6 0 -66 -55 -133 -123 -130 -133
-117 -111 -167 -290 -8 -29 -29 -75 -47 -102 -29 -45 -370 -396 -782 -804
-154 -154 -227 -211 -267 -211 -28 0 -59 18 -59 34 0 7 93 108 206 225 173
177 204 214 194 226 -7 8 -17 15 -22 15 -6 0 -94 -82 -197 -183 -324 -318
-377 -367 -403 -367 -27 0 -68 26 -68 43 0 7 124 136 276 288 273 273 302 309
247 309 -10 0 -143 -126 -298 -282 -159 -159 -294 -287 -312 -295 -28 -11 -38
-11 -67 1 -55 23 -72 77 -42 134 8 15 143 155 300 312 157 157 286 290 286
296 0 6 -6 17 -14 23 -12 10 -62 -36 -273 -249 -184 -185 -264 -260 -280 -260
-22 0 -53 42 -53 72 0 20 621 636 660 655 26 12 76 18 192 24 142 6 163 9 212
33 70 34 85 51 63 73 -14 15 -19 14 -61 -6 -57 -26 -153 -41 -279 -41 -64 0
-110 -5 -134 -15 -20 -9 -85 -63 -145 -122 l-108 -107 -50 0 c-31 0 -56 6 -65
15 -12 12 2 30 103 136 l117 122 60 6 c98 11 135 46 135 129 0 17 8 45 18 61
31 51 233 255 272 275 22 11 87 24 174 34 76 9 148 21 159 27 29 15 277 261
277 275 0 6 -8 18 -18 27 -17 15 -26 8 -152 -118z"/>
<path d="M2460 5158 c0 -7 7 -22 15 -32 8 -11 15 -34 15 -50 0 -107 66 -186
155 -186 41 0 75 29 75 63 0 37 -46 123 -76 143 -30 20 -157 74 -174 74 -6 0
-10 -6 -10 -12z"/>
<path d="M2750 4895 c0 -5 7 -16 16 -26 8 -9 28 -50 43 -90 30 -83 69 -119
127 -119 103 0 65 154 -52 213 -35 18 -134 34 -134 22z"/>
<path d="M2230 4777 c0 -32 45 -94 81 -113 23 -11 44 -14 79 -9 54 7 91 -7
148 -56 30 -26 39 -29 101 -27 57 2 77 -2 121 -25 29 -15 55 -25 58 -22 11 11
-27 60 -60 77 -19 11 -54 18 -85 18 -43 0 -59 5 -96 34 -81 62 -103 67 -174
42 -54 -19 -91 -2 -129 58 -32 51 -44 57 -44 23z"/>
<path d="M2046 4558 c-42 -9 -116 -47 -116 -60 0 -12 15 -10 71 8 47 16 56 15
130 -1 62 -13 86 -14 111 -6 49 17 94 13 159 -14 43 -19 76 -25 117 -24 31 1
85 -6 120 -16 34 -10 65 -16 67 -13 8 8 -47 59 -73 69 -13 5 -48 9 -78 9 -30
0 -80 9 -112 21 -105 38 -129 42 -190 31 -31 -6 -82 -7 -113 -3 -30 4 -72 3
-93 -1z"/>
<path d="M935 4491 c-22 -10 -50 -30 -63 -43 -26 -28 -179 -262 -382 -581 -73
-114 -144 -216 -159 -226 -14 -10 -50 -22 -79 -26 -42 -5 -52 -11 -50 -23 3
-15 324 -219 450 -287 45 -23 78 -32 78 -20 0 3 -10 20 -22 36 -17 23 -23 44
-23 82 0 45 7 62 52 132 28 44 77 123 109 175 32 52 87 140 124 195 81 122
192 299 214 342 44 87 -6 218 -97 252 -42 16 -107 13 -152 -8z m155 -30 c73
-38 101 -128 64 -206 -13 -29 -165 -189 -595 -629 l-136 -139 -66 37 c-80 45
-87 54 -50 62 48 10 76 43 199 239 207 331 396 608 433 632 42 28 103 30 151
4z"/>
<path d="M1321 3568 c-33 -91 -20 -155 45 -218 l46 -45 -7 -66 c-8 -84 4 -113
55 -139 43 -22 79 -80 80 -127 0 -30 30 -103 42 -103 5 0 7 12 4 28 -3 15 -8
52 -12 82 -9 77 -19 99 -65 140 -38 36 -39 38 -39 106 0 78 -6 90 -75 170
l-50 57 1 69 c1 68 -9 88 -25 46z"/>
<path d="M1176 3292 c-3 -5 13 -26 34 -47 38 -37 40 -43 40 -98 0 -62 0 -63
94 -145 10 -10 31 -44 46 -77 15 -33 36 -68 47 -78 21 -18 58 -95 68 -140 9
-46 25 -20 21 36 -4 58 -16 94 -44 135 -11 15 -36 54 -57 87 -21 33 -53 77
-71 97 -19 21 -36 50 -40 65 -12 50 -42 99 -83 136 -44 40 -47 41 -55 29z"/>
<path d="M2004 3018 c-127 -128 -241 -250 -253 -270 -13 -21 -29 -42 -37 -46
-9 -5 -19 -24 -24 -43 -35 -137 -76 -222 -128 -270 -52 -48 -88 -65 -172 -78
-35 -6 -66 -14 -69 -19 -3 -5 -31 -25 -61 -45 -62 -40 -655 -629 -649 -645 5
-13 235 -252 243 -252 9 0 1583 1569 1616 1610 l28 36 -122 127 c-67 70 -127
127 -132 127 -5 0 -113 -105 -240 -232z"/>
<path d="M706 3191 c-3 -5 3 -26 13 -47 10 -22 29 -61 42 -88 28 -58 68 -86
125 -86 53 0 77 19 76 59 -2 61 -56 111 -137 125 -22 4 -55 16 -73 27 -38 22
-39 22 -46 10z"/>
<path d="M1010 2891 c0 -5 7 -22 15 -37 8 -16 15 -37 15 -47 0 -30 37 -92 75
-125 29 -26 44 -32 83 -32 57 0 72 12 72 57 0 76 -47 124 -149 152 -41 12 -79
25 -85 31 -12 12 -26 13 -26 1z"/>
<path d="M588 2763 c-31 -8 -20 -23 16 -23 31 0 37 -5 61 -49 30 -54 74 -81
131 -81 29 0 44 -9 85 -50 27 -27 58 -50 67 -51 61 -2 87 -10 111 -33 16 -15
57 -36 93 -47 36 -10 84 -33 106 -49 23 -17 46 -30 52 -30 45 0 -62 102 -126
120 -25 7 -60 25 -79 40 -19 15 -56 34 -81 41 -30 9 -62 29 -88 56 -34 34 -51
43 -105 54 -54 10 -73 20 -118 61 -52 47 -74 54 -125 41z"/>
<path d="M538 2523 c-29 -7 -20 -23 12 -23 38 0 66 -28 80 -79 12 -46 37 -66
95 -77 28 -5 51 -19 75 -44 47 -50 69 -55 127 -30 46 19 51 20 92 5 56 -19
101 -19 129 1 27 19 19 39 -8 22 -15 -10 -26 -10 -52 1 -108 44 -120 45 -190
16 -11 -4 -29 5 -55 28 -21 19 -54 38 -73 42 -52 11 -65 20 -96 68 -15 25 -35
49 -44 54 -21 14 -70 22 -92 16z"/>
<path d="M3338 2704 c-31 -16 -45 -55 -32 -84 9 -19 160 -176 254 -264 54 -51
84 -57 118 -26 37 35 29 78 -25 137 -85 90 -261 253 -275 253 -7 -1 -25 -7
-40 -16z"/>
<path d="M2997 2353 c-20 -14 -37 -31 -37 -37 0 -7 29 -40 63 -74 l64 -63 31
36 c45 50 46 93 4 138 -33 35 -75 35 -125 0z"/>
<path d="M2672 2020 c-23 -17 -42 -34 -42 -39 0 -12 119 -131 130 -131 4 0 20
17 36 37 39 52 38 97 -4 134 -41 37 -69 37 -120 -1z"/>
<path d="M2341 1704 c-39 -49 -31 -63 124 -216 80 -78 155 -146 165 -150 48
-18 99 34 86 87 -4 14 -67 85 -147 165 -125 125 -143 140 -174 140 -24 0 -39
-7 -54 -26z"/>
<path d="M5310 603 c-84 -58 -123 -136 -88 -171 20 -20 44 -14 96 27 67 53 98
104 83 137 -13 29 -54 32 -91 7z"/>
<path d="M5433 448 c-82 -68 -104 -134 -59 -177 38 -36 82 -23 145 44 44 46
51 59 51 94 0 75 -70 94 -137 39z"/>
</g>
</svg>
