<?xml version="1.0" standalone="no"?>
<!DOCTYPE svg PUBLIC "-//W3C//DTD SVG 20010904//EN"
 "http://www.w3.org/TR/2001/REC-SVG-20010904/DTD/svg10.dtd">
<svg version="1.0" xmlns="http://www.w3.org/2000/svg"
 width="582.000000pt" height="583.000000pt" viewBox="0 0 582.000000 583.000000"
 preserveAspectRatio="xMidYMid meet">
<metadata>
Created by potrace 1.16, written by Peter Selinger 2001-2019
</metadata>
<g transform="translate(0.000000,583.000000) scale(0.100000,-0.100000)"
fill="#000000" stroke="none">
<path d="M0 2915 l0 -2915 2910 0 2910 0 0 2915 0 2915 -2910 0 -2910 0 0
-2915z m5690 -10 l0 -2785 -2790 0 -2790 0 0 2785 0 2785 2790 0 2790 0 0
-2785z"/>
<path d="M2213 4978 c-32 -36 -42 -61 -49 -130 -5 -51 -3 -71 11 -98 20 -39
14 -107 -14 -141 l-17 -21 -29 38 c-91 122 -243 251 -358 305 -57 26 -74 29
-202 34 -310 12 -435 -49 -553 -268 -40 -75 -97 -240 -112 -326 -14 -77 -8
-127 24 -209 44 -112 89 -172 211 -282 116 -104 142 -134 127 -144 -13 -8 -89
-8 -202 -1 -93 6 -111 5 -161 -14 -44 -17 -60 -28 -69 -52 -19 -44 -15 -80 13
-136 30 -58 33 -75 23 -130 -6 -35 -4 -49 14 -78 26 -41 52 -50 128 -41 70 8
116 39 180 119 l47 59 249 114 c245 113 250 114 269 96 18 -19 16 -23 -91
-217 -118 -214 -117 -213 -212 -294 -129 -111 -158 -220 -72 -265 23 -12 31
-12 52 -1 29 16 57 6 142 -47 29 -19 63 -37 75 -40 33 -9 96 41 123 96 20 43
21 54 15 165 l-7 119 82 205 82 206 46 15 c107 37 199 120 256 234 33 66 37
70 103 99 38 17 112 45 166 61 86 27 118 32 266 38 198 8 240 22 279 89 28 49
23 85 -18 132 -28 32 -30 39 -29 110 2 101 -17 128 -87 128 -65 -1 -127 -33
-222 -116 -164 -142 -344 -238 -444 -239 -43 0 -36 31 39 176 104 203 152 265
266 345 62 43 77 72 77 152 0 58 -3 68 -29 96 -32 35 -60 39 -96 15 -31 -20
-57 -14 -132 31 -71 43 -128 47 -160 13z m197 -79 c47 -24 63 -28 79 -20 46
25 91 -1 91 -52 0 -25 -15 -45 -83 -111 -130 -126 -171 -182 -246 -334 -39
-77 -75 -143 -80 -146 -13 -9 -28 14 -36 55 -5 27 -2 44 14 70 43 69 89 277
90 409 1 66 4 84 23 133 9 23 16 27 50 27 24 0 61 -12 98 -31z m-664 -27 c75
-41 306 -257 335 -314 25 -49 18 -116 -17 -158 -28 -33 -29 -46 -8 -89 9 -18
18 -59 21 -92 8 -85 -32 -165 -130 -254 -40 -37 -84 -73 -99 -81 -15 -8 -44
-25 -64 -39 -50 -34 -81 -31 -140 10 -27 19 -54 35 -61 35 -6 0 -42 -21 -80
-46 -51 -34 -80 -47 -118 -51 -47 -5 -53 -3 -113 42 -87 66 -281 274 -314 337
-20 39 -28 68 -28 108 0 105 82 348 152 451 48 71 112 105 298 159 51 15 92
19 185 17 115 -2 123 -4 181 -35z m1191 -433 c8 -15 10 -43 6 -76 -4 -37 -1
-66 10 -95 30 -82 30 -103 3 -134 l-24 -29 -144 -1 c-176 -1 -182 -2 -343 -65
-164 -64 -165 -64 -166 -48 -3 35 4 85 12 95 5 6 35 19 67 29 96 29 192 89
326 202 70 60 140 117 156 129 38 28 81 25 97 -7z m-732 -366 c31 -46 32 -84
3 -160 -28 -76 -60 -117 -128 -163 -140 -95 -193 -105 -270 -49 -53 39 -54 63
-2 54 35 -6 44 -2 88 33 27 21 91 82 141 135 74 76 95 105 105 141 7 25 18 46
25 46 7 0 24 -17 38 -37z m-555 -298 c23 -24 23 -25 5 -45 -10 -11 -27 -22
-39 -26 -11 -4 -120 -56 -240 -116 -206 -102 -223 -113 -278 -173 -59 -64
-110 -92 -147 -80 -21 6 -41 70 -41 133 0 23 -8 49 -19 63 -24 32 -35 83 -22
108 18 33 67 41 246 39 169 -3 170 -2 260 30 50 18 122 45 160 61 39 16 75 30
81 30 6 1 21 -10 34 -24z m218 -177 c3 -17 -61 -187 -119 -313 l-32 -70 7
-126 c9 -165 -7 -210 -80 -225 -24 -4 -38 2 -82 40 -46 40 -60 46 -98 46 -62
0 -87 15 -80 46 4 13 43 62 89 108 90 91 148 182 250 388 l62 127 40 -2 c28
-1 41 -7 43 -19z"/>
<path d="M1752 4504 c-12 -8 -22 -20 -22 -26 0 -5 -8 -22 -18 -36 -30 -42 -43
-91 -32 -113 6 -10 27 -23 48 -28 85 -23 161 34 170 128 4 43 1 50 -23 69 -33
26 -91 29 -123 6z"/>
<path d="M1419 4159 c-47 -51 -58 -101 -31 -138 23 -32 60 -38 101 -16 35 18
56 53 66 112 10 60 -6 83 -57 83 -35 0 -46 -6 -79 -41z"/>
<path d="M1744 4115 c-8 -20 14 -155 28 -172 15 -19 66 21 76 60 6 25 15 33
38 37 22 4 30 11 32 32 4 34 -16 45 -101 54 -58 6 -67 4 -73 -11z"/>
<path d="M4034 3821 c-118 -74 -114 -208 8 -288 40 -27 46 -28 182 -28 155 -1
173 -6 202 -61 17 -30 17 -34 1 -58 -26 -39 -67 -35 -117 11 l-41 36 -34 -33
-35 -34 28 -29 c79 -84 169 -105 236 -53 52 40 70 71 70 126 0 61 -42 132
-103 175 -43 30 -44 30 -180 31 -165 0 -156 -1 -181 26 -27 29 -26 64 4 83 27
18 50 12 89 -24 l27 -25 33 32 c37 38 34 48 -30 94 -54 39 -116 47 -159 19z"/>
<path d="M3750 3525 l-44 -44 154 -228 c85 -126 171 -251 191 -280 l36 -52 37
38 37 37 -52 69 -51 68 41 41 c31 31 45 38 56 31 8 -6 40 -28 70 -49 l56 -39
37 36 c20 20 34 38 31 41 -2 2 -56 40 -119 83 -63 44 -184 128 -269 186 -84
59 -156 107 -160 107 -4 0 -27 -20 -51 -45z"/>
<path d="M3525 3306 c-43 -19 -103 -89 -110 -130 -8 -42 -1 -68 36 -127 38
-60 274 -290 321 -312 104 -48 220 21 202 121 l-7 37 25 -23 24 -22 24 25 24
26 -127 127 -127 127 -57 -57 -57 -58 34 -35 34 -35 23 22 23 22 31 -30 c62
-59 77 -122 35 -149 -16 -11 -33 -14 -52 -9 -32 8 -267 232 -290 276 -44 85
32 144 106 82 l31 -27 35 34 34 33 -23 24 c-25 28 -113 72 -142 72 -11 -1 -33
-7 -50 -14z"/>
<path d="M3023 2799 c-38 -11 -98 -78 -106 -118 -14 -69 27 -137 177 -290 159
-163 246 -203 327 -148 43 29 79 82 79 117 0 48 -88 190 -118 190 -5 0 -21
-13 -37 -30 -27 -28 -27 -30 -11 -52 9 -13 28 -39 42 -57 29 -41 28 -61 -5
-77 -42 -21 -80 3 -213 135 -104 104 -128 133 -133 164 -13 70 38 90 98 37
l34 -29 33 34 34 35 -25 26 c-47 51 -123 78 -176 63z"/>
<path d="M2780 2555 c-18 -19 -32 -37 -29 -39 2 -3 107 -109 234 -236 l229
-230 36 35 35 35 -235 235 -236 236 -34 -36z"/>
<path d="M2677 2453 l-36 -38 49 -99 c28 -54 50 -100 50 -100 0 -1 -45 21
-101 48 l-101 49 -39 -40 -40 -40 157 -69 c92 -40 162 -77 169 -89 6 -11 41
-86 76 -167 l64 -148 38 38 38 38 -49 105 c-27 57 -49 105 -48 106 0 1 48 -21
105 -48 l104 -50 39 38 38 37 -22 13 c-13 6 -87 40 -165 73 l-142 62 -42 96
c-69 161 -98 222 -101 222 -2 0 -20 -17 -41 -37z"/>
<path d="M2384 2151 c-69 -17 -129 -90 -128 -157 1 -60 40 -119 161 -245 195
-201 277 -232 376 -140 39 36 57 73 57 119 0 57 -58 138 -189 265 -146 141
-206 175 -277 158z m86 -122 c52 -32 255 -240 267 -274 20 -60 -22 -103 -80
-82 -33 11 -201 167 -259 240 -41 53 -48 89 -21 119 21 24 50 23 93 -3z"/>
<path d="M2059 1834 l-114 -114 35 -35 36 -35 39 40 39 40 201 -200 201 -200
34 35 34 35 -199 200 -199 200 38 39 c41 42 40 57 -8 93 -22 16 -25 15 -137
-98z"/>
<path d="M5125 858 c-55 -11 -132 -72 -179 -141 -50 -72 -60 -150 -28 -213 35
-68 42 -69 95 -16 l47 48 -16 32 c-20 41 -6 90 37 127 33 27 59 31 90 15 27
-15 24 -52 -16 -180 -50 -158 -45 -222 23 -301 l35 -41 168 168 169 169 -42
42 -42 43 -108 -107 c-75 -74 -108 -102 -108 -89 0 11 16 68 35 127 20 62 35
129 35 156 0 113 -86 183 -195 161z"/>
</g>
</svg>
