<?xml version="1.0" standalone="no"?>
<!DOCTYPE svg PUBLIC "-//W3C//DTD SVG 20010904//EN"
 "http://www.w3.org/TR/2001/REC-SVG-20010904/DTD/svg10.dtd">
<svg version="1.0" xmlns="http://www.w3.org/2000/svg"
 width="631.000000pt" height="631.000000pt" viewBox="0 0 631.000000 631.000000"
 preserveAspectRatio="xMidYMid meet">
<metadata>
Created by potrace 1.16, written by Peter Selinger 2001-2019
</metadata>
<g transform="translate(0.000000,631.000000) scale(0.100000,-0.100000)"
fill="#000000" stroke="none">
<path d="M0 6122 l0 -187 85 -85 85 -85 0 -540 0 -540 -85 85 -85 85 0 -380 0
-380 85 -85 85 -85 0 -540 0 -540 -85 85 -85 85 0 -380 0 -380 85 -85 85 -85
0 -540 0 -540 -85 85 -85 85 0 -588 0 -587 3155 0 3155 0 0 3155 0 3155 -597
0 -598 0 85 -80 85 -79 -535 -1 -535 0 -80 80 -80 80 -380 0 -380 0 80 -80 80
-80 -540 0 -540 0 -80 80 -80 80 -374 0 -375 0 60 -62 c33 -35 66 -71 73 -80
13 -17 -14 -18 -522 -18 l-536 0 -78 80 -77 80 -193 0 -193 0 0 -188z m1788
-142 l161 -160 -542 0 -542 0 -150 156 c-83 85 -152 157 -154 160 -2 2 236 4
530 4 l535 0 162 -160z m1837 0 l160 -160 -540 0 -540 0 -160 160 -160 160
540 0 540 0 160 -160z m1830 0 l160 -160 -541 0 -540 0 -153 160 -153 160 534
0 533 0 160 -160z m-4967 -1073 l-3 -539 -152 152 -153 153 0 541 0 541 155
-155 155 -155 -2 -538z m2626 -254 l1025 -1028 186 185 c102 102 185 189 185
195 0 5 -375 385 -832 842 l-833 833 540 0 540 0 567 -567 568 -568 187 188
188 187 -380 380 -380 380 540 0 540 0 105 -105 c58 -58 109 -105 115 -105 6
0 57 47 115 105 58 58 108 105 112 105 5 0 8 -1253 8 -2785 l0 -2785 -2787 0
-2788 0 104 104 c89 89 102 106 93 122 -6 11 -54 61 -106 113 l-96 93 0 542 0
541 380 -380 380 -380 185 185 c102 102 185 187 185 190 0 3 -254 262 -565
575 l-565 570 0 540 0 540 837 -838 c461 -460 840 -836 844 -835 4 2 88 86
187 188 l179 185 -1023 1029 -1024 1028 0 542 1 541 1294 -1300 1295 -1300
190 190 190 190 -1297 1297 -1298 1298 541 0 542 0 1026 -1027z m-2626 -1587
l-3 -539 -152 154 -153 154 0 540 0 540 155 -155 155 -155 -2 -539z m2 -1841
l0 -540 -155 155 -155 155 0 540 0 540 155 -155 155 -155 0 -540z"/>
<path d="M5342 1129 c-60 -30 -129 -110 -147 -172 -20 -67 -19 -96 5 -160 41
-108 134 -185 237 -194 50 -4 65 -1 113 24 65 34 115 96 125 153 6 35 9 39 22
28 32 -26 73 -113 73 -154 0 -74 -76 -129 -130 -94 -11 7 -28 -3 -67 -43 -29
-28 -53 -55 -53 -60 0 -17 86 -47 135 -47 68 0 122 27 177 89 59 65 72 104 66
195 -7 104 -47 176 -168 297 -118 118 -191 159 -284 159 -42 0 -74 -7 -104
-21z m154 -134 c100 -59 118 -161 39 -223 -38 -30 -84 -28 -131 7 -47 34 -74
71 -81 114 -8 55 55 126 111 127 11 0 38 -11 62 -25z"/>
</g>
</svg>
