<?xml version="1.0" standalone="no"?>
<!DOCTYPE svg PUBLIC "-//W3C//DTD SVG 20010904//EN"
 "http://www.w3.org/TR/2001/REC-SVG-20010904/DTD/svg10.dtd">
<svg version="1.0" xmlns="http://www.w3.org/2000/svg"
 width="584.000000pt" height="579.000000pt" viewBox="0 0 584.000000 579.000000"
 preserveAspectRatio="xMidYMid meet">
<metadata>
Created by potrace 1.16, written by Peter Selinger 2001-2019
</metadata>
<g transform="translate(0.000000,579.000000) scale(0.100000,-0.100000)"
fill="#000000" stroke="none">
<path d="M0 2895 l0 -2895 2915 0 2915 0 0 2895 0 2895 -2915 0 -2915 0 0
-2895z m5590 2782 c0 -1 -1233 -1235 -2740 -2742 l-2740 -2740 0 2743 0 2742
2740 0 c1507 0 2740 -1 2740 -3z m100 -2827 l0 -2740 -2742 0 -2743 0 2740
2740 c1507 1507 2741 2740 2742 2740 2 0 3 -1233 3 -2740z"/>
<path d="M1600 5564 c-14 -3 -63 -11 -109 -19 -46 -8 -87 -19 -91 -26 -5 -6 3
-53 17 -103 13 -50 65 -253 114 -451 49 -198 94 -374 100 -391 l9 -30 108 0
c123 1 173 -13 262 -75 31 -22 60 -39 66 -39 5 0 71 62 146 138 75 75 233 233
352 351 119 118 216 218 216 223 0 21 -144 137 -247 200 -157 95 -324 163
-498 200 -88 19 -384 33 -445 22z"/>
<path d="M346 4491 c-33 -53 -57 -401 -37 -542 25 -179 99 -416 168 -537 65
-117 208 -307 236 -317 7 -3 171 153 365 346 296 294 351 353 343 368 -5 9
-25 41 -45 70 -50 76 -70 162 -63 260 4 56 3 82 -6 89 -7 6 -66 24 -132 41
-66 17 -178 49 -250 71 -237 71 -520 153 -546 157 -15 3 -30 0 -33 -6z"/>
<path d="M1656 4383 c-73 -25 -160 -112 -180 -182 -43 -147 10 -281 139 -349
43 -23 62 -27 135 -27 91 1 106 6 182 63 69 52 103 125 103 222 0 62 -5 85
-28 132 -63 128 -211 187 -351 141z"/>
<path d="M2140 3925 c-33 -82 -105 -156 -198 -203 -65 -33 -77 -43 -76 -63 1
-13 38 -168 84 -344 45 -176 91 -356 101 -400 44 -189 44 -190 63 -193 42 -8
248 79 381 160 200 124 381 308 498 509 66 113 120 240 121 288 1 40 49 22
-394 146 -151 42 -327 92 -390 112 -175 54 -163 55 -190 -12z"/>
<path d="M4772 4537 c-53 -53 -81 -89 -77 -98 3 -8 138 -147 300 -309 l295
-295 85 85 c47 46 85 88 85 92 0 9 -590 608 -599 608 -3 0 -44 -37 -89 -83z"/>
<path d="M4546 4311 c-50 -50 -88 -92 -85 -95 2 -3 139 -140 303 -306 l300
-301 88 88 88 88 -65 65 c-35 36 -171 174 -302 308 l-238 243 -89 -90z"/>
<path d="M4318 4083 l-87 -88 303 -307 302 -307 89 89 90 90 -305 305 -305
305 -87 -87z"/>
<path d="M4005 3760 l-90 -89 260 -263 c143 -144 263 -263 266 -263 4 0 50 42
104 94 l97 93 -33 34 -33 34 -56 -55 c-31 -30 -60 -55 -66 -55 -5 0 -45 36
-89 80 l-79 80 38 39 39 40 -29 35 c-16 19 -34 35 -41 35 -7 1 -25 -15 -40
-34 -15 -19 -33 -35 -38 -35 -14 0 -145 132 -145 146 0 5 23 32 50 59 28 27
50 54 50 60 0 16 -43 55 -61 55 -8 0 -54 -41 -104 -90z"/>
<path d="M3808 3555 c-16 -18 -28 -36 -28 -40 0 -4 77 -103 170 -221 94 -118
170 -216 170 -220 0 -3 -93 70 -207 162 -115 92 -214 172 -221 177 -10 8 -24
0 -53 -29 l-40 -40 63 -44 c62 -44 411 -301 498 -367 l44 -34 40 41 c31 30 38
44 31 54 -6 8 -80 113 -166 233 -85 120 -178 250 -205 290 -27 40 -53 72 -59
72 -5 0 -22 -15 -37 -34z"/>
<path d="M3497 3242 c-20 -21 -37 -42 -37 -47 0 -6 116 -126 258 -268 l258
-257 39 40 39 40 -259 262 c-143 145 -260 264 -261 265 0 2 -17 -14 -37 -35z"/>
<path d="M3275 3020 l-110 -110 17 -27 c31 -51 45 -52 83 -8 l35 40 230 -232
c126 -128 232 -233 234 -233 2 0 19 18 37 41 l32 41 -229 229 -228 229 39 40
39 40 -29 30 c-16 16 -31 30 -35 30 -3 0 -55 -49 -115 -110z"/>
<path d="M3056 2790 c-59 -18 -116 -95 -116 -155 0 -53 45 -113 204 -271 166
-166 218 -204 281 -204 100 0 180 113 142 201 -8 19 -37 59 -65 89 l-51 55
-35 -34 c-20 -19 -36 -37 -36 -40 0 -4 23 -31 50 -61 28 -30 50 -64 50 -76 0
-29 -25 -48 -54 -40 -25 6 -359 336 -382 377 -18 32 -17 36 6 59 25 25 45 17
108 -43 l42 -41 37 37 37 37 -39 40 c-39 40 -109 81 -136 79 -8 0 -27 -5 -43
-9z"/>
<path d="M2681 2426 l-44 -45 18 -28 c10 -15 44 -62 74 -104 31 -42 119 -165
196 -272 77 -108 146 -196 153 -197 14 0 72 56 72 70 0 4 -8 14 -18 23 -10 10
-33 37 -51 62 l-32 45 33 30 c18 16 36 30 41 30 5 0 33 -20 64 -45 30 -25 59
-45 65 -45 11 0 68 58 68 69 0 7 -585 451 -593 451 -1 0 -22 -20 -46 -44z"/>
<path d="M4143 1652 l-753 -747 343 -347 342 -348 755 750 755 750 -345 344
-345 344 -752 -746z m632 -637 l-700 -695 -287 292 -288 293 698 692 697 691
290 -289 290 -289 -700 -695z"/>
<path d="M5086 1561 l-28 -29 46 -46 c25 -25 49 -46 53 -46 17 0 63 56 63 77
0 13 -11 35 -25 48 -33 34 -74 33 -109 -4z"/>
<path d="M4605 1085 c-14 -13 -25 -31 -25 -39 0 -68 85 -111 130 -66 30 30 26
73 -11 104 -38 32 -63 33 -94 1z"/>
<path d="M2444 2169 c-43 -12 -101 -72 -113 -117 -22 -81 18 -138 272 -383
154 -147 190 -163 273 -114 77 45 104 126 68 198 -20 38 -346 370 -389 396
-40 25 -74 30 -111 20z m228 -286 c127 -127 188 -195 188 -209 0 -29 -24 -48
-53 -41 -32 9 -387 369 -387 394 0 25 19 43 44 43 14 0 88 -67 208 -187z"/>
<path d="M2135 1880 c-21 -22 -37 -42 -34 -44 73 -79 516 -516 522 -516 5 0
25 16 44 37 l35 36 -259 262 c-142 144 -260 263 -263 263 -3 1 -23 -16 -45
-38z"/>
<path d="M1945 1681 c-16 -10 -59 -49 -95 -85 l-65 -66 262 -262 263 -263 56
55 c71 70 95 103 104 146 16 71 -1 97 -189 287 -97 98 -188 185 -203 193 -38
20 -97 17 -133 -5z m221 -225 c145 -140 204 -208 204 -237 0 -10 -11 -31 -24
-46 l-25 -28 -195 195 c-108 107 -196 201 -196 208 0 18 58 51 80 45 11 -3 81
-64 156 -137z"/>
<path d="M1586 1331 c-40 -41 -40 -51 -1 -99 8 -9 100 -135 206 -279 105 -145
195 -263 198 -263 4 0 22 15 40 34 l33 34 -52 67 -53 66 29 30 c15 16 34 29
43 29 8 0 41 -21 74 -46 l58 -46 35 33 c40 39 42 49 12 68 -13 8 -72 51 -133
96 -335 249 -427 315 -438 315 -7 0 -30 -18 -51 -39z"/>
<path d="M1348 1067 c-34 -15 -160 -135 -156 -147 4 -12 510 -520 518 -520 3
0 21 16 39 36 l34 36 -113 113 c-104 104 -123 135 -85 135 7 0 71 -36 141 -80
70 -44 130 -80 133 -80 4 0 24 17 44 38 l37 38 -122 74 c-168 100 -189 116
-184 143 15 85 -123 228 -218 227 -23 -1 -53 -6 -68 -13z m75 -98 c32 -17 87
-70 103 -101 13 -25 13 -32 -1 -57 -8 -17 -20 -33 -26 -37 -12 -7 -169 143
-169 163 0 11 45 42 63 43 5 0 18 -5 30 -11z"/>
<path d="M4977 812 c-103 -103 -187 -191 -187 -197 0 -5 12 -21 26 -36 l27
-28 155 160 c85 88 158 156 163 152 4 -4 21 -62 39 -128 46 -175 144 -415 170
-415 4 0 22 16 39 35 l31 36 -25 40 c-58 91 -150 338 -171 454 -4 22 -11 48
-16 58 -12 23 -45 57 -56 57 -4 0 -92 -84 -195 -188z"/>
</g>
</svg>
