<?xml version="1.0" standalone="no"?>
<!DOCTYPE svg PUBLIC "-//W3C//DTD SVG 20010904//EN"
 "http://www.w3.org/TR/2001/REC-SVG-20010904/DTD/svg10.dtd">
<svg version="1.0" xmlns="http://www.w3.org/2000/svg"
 width="683.000000pt" height="680.000000pt" viewBox="0 0 683.000000 680.000000"
 preserveAspectRatio="xMidYMid meet">
<metadata>
Created by potrace 1.16, written by Peter Selinger 2001-2019
</metadata>
<g transform="translate(0.000000,680.000000) scale(0.100000,-0.100000)"
fill="#000000" stroke="none">
<path d="M150 3385 l0 -3255 3250 0 3250 0 0 3255 0 3255 -3250 0 -3250 0 0
-3255z m6490 0 l0 -3245 -3240 0 -3240 0 0 3245 0 3245 3240 0 3240 0 0 -3245z"/>
<path d="M470 3385 l0 -2925 2930 0 2930 0 0 2925 0 2925 -2930 0 -2930 0 0
-2925z m5720 0 l0 -2785 -2790 0 -2790 0 0 2785 0 2785 2790 0 2790 0 0 -2785z"/>
<path d="M644 6014 c-12 -47 4 -167 31 -238 29 -78 70 -142 115 -179 29 -25
174 -112 253 -152 49 -25 163 -118 177 -145 12 -23 21 -22 -111 -20 -91 1
-176 -13 -254 -42 -36 -14 -95 -56 -95 -68 0 -5 28 -7 65 -3 53 5 73 2 117
-17 154 -65 314 -255 353 -418 10 -40 15 -75 12 -78 -3 -3 -36 2 -74 12 -147
39 -287 14 -333 -61 -27 -43 -22 -53 15 -29 17 11 45 18 74 17 116 -2 201 -83
321 -308 30 -55 69 -122 87 -150 18 -27 33 -53 33 -57 0 -3 -33 -23 -74 -42
-76 -37 -117 -78 -138 -137 -14 -40 -7 -44 33 -20 22 14 51 21 82 21 98 0 172
-59 248 -196 58 -105 164 -228 234 -272 71 -45 149 -80 195 -87 25 -3 52 -8
60 -11 8 -2 21 0 28 5 10 6 -6 27 -58 76 -86 83 -141 154 -185 236 -21 39 -48
73 -71 88 -21 15 -48 46 -60 71 -32 62 -31 71 8 63 31 -6 31 -6 24 28 -4 19
-10 69 -13 112 l-6 78 -57 44 c-54 42 -139 149 -128 161 3 3 24 -4 47 -15 22
-12 63 -30 90 -41 l50 -19 11 37 c5 20 15 63 22 95 16 74 5 93 -93 168 -64 49
-117 114 -104 127 2 3 26 -1 52 -7 100 -25 152 -44 177 -67 14 -13 29 -24 35
-24 12 0 101 126 101 144 0 17 -64 67 -125 99 -81 41 -120 90 -153 189 -19 54
-49 115 -81 163 -42 61 -49 76 -36 81 35 14 102 -26 181 -109 80 -83 89 -89
224 -150 41 -19 95 -53 120 -76 24 -22 46 -41 48 -41 13 0 133 77 137 89 3 8
-16 58 -42 110 -26 53 -49 100 -51 105 -14 29 91 -50 142 -106 33 -38 68 -68
79 -68 10 0 49 7 86 16 63 14 69 17 75 45 7 36 20 37 61 1 28 -25 43 -30 117
-35 227 -18 444 -120 596 -281 29 -31 56 -56 59 -56 3 0 3 18 0 41 -11 83
-127 214 -352 396 -141 115 -190 169 -227 251 -25 55 -29 75 -25 114 4 27 2
48 -2 48 -13 0 -111 -67 -145 -98 -27 -26 -29 -26 -40 -8 -6 10 -38 55 -72
100 -117 156 -297 281 -471 325 -72 19 -153 28 -153 17 0 -2 38 -41 83 -87 83
-83 145 -164 134 -175 -3 -3 -25 14 -49 38 -91 89 -246 179 -353 203 -69 16
-340 18 -300 2 96 -38 169 -83 201 -125 32 -43 52 -87 42 -97 -2 -3 -28 12
-57 31 -120 81 -214 108 -414 119 -222 13 -392 93 -478 224 -18 28 -36 51 -40
51 -5 0 -12 -12 -15 -26z"/>
<path d="M2545 4980 c-154 -20 -309 -87 -436 -189 -159 -129 -255 -275 -310
-476 -32 -118 -33 -312 -1 -415 57 -184 127 -316 220 -413 42 -43 171 -132
249 -171 138 -69 340 -100 490 -76 93 15 220 53 286 87 27 13 51 22 54 19 8
-8 -121 -147 -321 -346 -97 -96 -176 -179 -176 -185 0 -6 27 -37 60 -70 l60
-59 127 130 c70 71 373 377 675 679 301 303 548 554 548 558 0 8 -78 88 -112
115 -14 11 -50 -21 -282 -254 -146 -148 -268 -265 -272 -261 -4 3 5 32 20 63
77 163 107 392 72 562 -91 449 -509 758 -951 702z m226 -194 c375 -67 624
-427 555 -801 -65 -346 -373 -591 -720 -572 -226 11 -425 126 -541 311 -177
284 -139 634 94 867 165 165 386 235 612 195z"/>
<path d="M4742 4538 c-37 -21 -110 -85 -170 -150 l-23 -25 78 -68 c98 -85 186
-168 335 -314 l118 -115 35 34 c59 57 58 60 -56 169 -90 86 -101 101 -90 115
7 9 17 16 22 16 5 0 68 -32 140 -71 l132 -71 43 43 c24 24 44 46 44 50 0 4
-67 42 -149 83 -148 75 -149 76 -149 109 0 93 -133 217 -234 217 -19 0 -53
-10 -76 -22z m135 -133 c22 -19 46 -48 53 -64 10 -26 10 -35 -7 -63 -11 -18
-25 -33 -32 -33 -20 0 -161 128 -161 145 0 20 48 49 81 50 15 0 42 -14 66 -35z"/>
<path d="M4335 4139 l-110 -111 41 -36 c197 -178 343 -317 399 -378 36 -41 72
-74 80 -74 14 0 225 217 225 231 0 5 -15 22 -32 39 l-33 29 -68 -67 -67 -66
-75 74 -75 74 40 41 c22 22 40 46 40 52 0 7 -16 24 -35 39 l-36 27 -41 -42
c-23 -23 -45 -40 -48 -39 -20 9 -130 115 -130 126 0 7 26 40 57 73 l56 59 -28
30 c-16 17 -34 30 -39 30 -6 0 -61 -50 -121 -111z"/>
<path d="M3961 3775 c-66 -68 -121 -128 -121 -133 0 -9 43 -51 68 -66 8 -5 36
17 81 63 37 39 71 71 75 71 11 0 68 -139 160 -392 39 -107 86 -185 111 -187
16 -1 265 252 265 270 0 8 -14 28 -30 44 l-30 29 -84 -83 c-46 -46 -86 -79
-89 -74 -3 5 -49 121 -102 258 -52 137 -105 260 -118 274 -26 30 -50 50 -58
51 -3 0 -61 -56 -128 -125z"/>
<path d="M3652 3457 c-23 -23 -42 -48 -42 -54 0 -6 90 -95 200 -198 110 -103
222 -212 249 -241 27 -30 55 -54 62 -54 6 0 31 21 55 47 36 38 41 49 31 61
-24 30 -363 361 -402 394 -22 18 -53 46 -69 61 -16 15 -32 27 -35 27 -4 0 -26
-19 -49 -43z"/>
<path d="M3442 3195 c-23 -7 -57 -24 -75 -38 -58 -46 -149 -136 -145 -145 1
-5 55 -56 118 -112 63 -57 181 -166 261 -242 l147 -138 75 81 c42 44 83 96 91
114 25 53 20 105 -15 158 -39 60 -276 285 -331 315 -47 25 -65 26 -126 7z
m183 -221 c127 -117 185 -185 185 -219 0 -12 -10 -31 -23 -43 l-23 -22 -120
112 c-65 62 -148 141 -184 175 l-65 63 25 20 c52 41 78 30 205 -86z"/>
<path d="M3040 2838 c-19 -22 -36 -44 -38 -48 -3 -8 9 -20 183 -177 55 -50
151 -141 213 -202 62 -61 116 -111 120 -111 12 0 92 84 92 97 0 6 -87 93 -194
194 -282 268 -306 289 -324 289 -9 -1 -33 -19 -52 -42z"/>
<path d="M2855 2666 c-64 -72 -62 -55 -20 -156 21 -50 36 -93 33 -95 -2 -3
-41 9 -87 25 -45 17 -90 30 -101 30 -21 0 -100 -70 -100 -88 0 -5 12 -13 28
-16 32 -8 265 -82 304 -97 30 -12 59 -72 129 -266 24 -68 49 -123 54 -123 6 0
28 18 49 39 46 47 45 54 -7 184 -25 60 -32 87 -23 87 7 0 56 -16 107 -35 52
-19 99 -35 104 -35 6 0 31 20 55 45 l43 44 -29 12 c-16 6 -90 33 -164 59 -74
27 -148 53 -163 59 -30 12 -59 67 -133 255 -21 53 -43 96 -49 95 -5 -1 -19
-11 -30 -23z"/>
<path d="M2475 2225 c-5 -2 -22 -6 -37 -9 -42 -9 -128 -84 -149 -129 -10 -23
-19 -61 -19 -85 0 -38 5 -48 53 -95 66 -67 310 -294 340 -317 56 -43 121 -31
197 37 87 78 109 147 71 222 -18 35 -317 326 -366 356 -21 13 -73 25 -90 20z
m167 -263 c161 -152 190 -186 186 -213 -5 -32 -52 -65 -77 -53 -35 16 -341
307 -347 330 -13 50 40 92 86 69 14 -8 82 -67 152 -133z"/>
<path d="M5730 1605 c-19 -20 -23 -35 -21 -72 1 -25 -3 -59 -10 -75 -11 -27
-10 -32 13 -55 31 -31 44 -25 59 27 7 22 15 40 18 40 3 0 61 -55 128 -122
l123 -122 30 29 c16 16 30 33 30 39 0 12 -326 336 -338 336 -5 0 -19 -11 -32
-25z"/>
<path d="M5297 1171 l-117 -119 65 -108 c36 -59 67 -110 70 -112 10 -10 66 53
84 93 22 49 79 101 121 110 64 14 120 -37 105 -96 -9 -35 -69 -97 -110 -115
-22 -9 -49 -12 -73 -8 -30 5 -41 2 -56 -15 -10 -11 -16 -27 -13 -35 8 -20 81
-39 120 -30 146 31 265 209 210 313 -57 108 -198 106 -302 -4 -28 -30 -51 -59
-51 -64 0 -22 -19 -10 -41 25 l-22 36 99 99 98 98 -24 26 c-13 14 -29 25 -35
25 -6 0 -64 -54 -128 -119z"/>
</g>
</svg>
