<?xml version="1.0" standalone="no"?>
<!DOCTYPE svg PUBLIC "-//W3C//DTD SVG 20010904//EN"
 "http://www.w3.org/TR/2001/REC-SVG-20010904/DTD/svg10.dtd">
<svg version="1.0" xmlns="http://www.w3.org/2000/svg"
 width="687.000000pt" height="683.000000pt" viewBox="0 0 687.000000 683.000000"
 preserveAspectRatio="xMidYMid meet">
<metadata>
Created by potrace 1.16, written by Peter Selinger 2001-2019
</metadata>
<g transform="translate(0.000000,683.000000) scale(0.100000,-0.100000)"
fill="#000000" stroke="none">
<path d="M0 3415 l0 -3415 3435 0 3435 0 0 3415 0 3415 -3435 0 -3435 0 0
-3415z m6360 -5 l0 -2930 -2925 0 -2925 0 0 2930 0 2930 2925 0 2925 0 0
-2930z"/>
<path d="M650 3410 l0 -2790 2785 0 2785 0 0 2790 0 2790 -2785 0 -2785 0 0
-2790z m154 2702 c27 -15 93 -70 145 -123 116 -115 172 -150 258 -161 93 -11
183 -42 296 -101 80 -41 126 -75 224 -164 67 -62 128 -113 134 -113 15 0 5 53
-33 168 -27 81 -37 99 -86 148 -31 31 -78 67 -104 80 -47 24 -64 42 -56 64 1
5 48 -12 102 -40 54 -27 147 -68 205 -91 219 -87 265 -123 362 -284 72 -120
145 -215 164 -215 26 0 57 109 62 220 8 167 -29 276 -121 357 -25 22 -60 44
-78 49 -37 11 -52 44 -20 44 32 0 144 -40 216 -78 95 -50 163 -132 246 -296
49 -96 81 -146 129 -198 35 -38 69 -67 75 -65 18 6 7 95 -26 197 -34 107 -50
234 -38 298 7 42 36 86 50 77 4 -2 10 -39 13 -82 6 -99 37 -175 104 -261 98
-124 133 -171 133 -176 0 -3 17 -32 37 -63 47 -74 88 -171 115 -275 18 -69 22
-110 21 -238 -1 -255 -53 -454 -168 -647 -56 -94 -77 -115 -96 -96 -10 10 -10
18 -1 38 22 48 9 213 -25 320 -19 61 -73 168 -105 211 -33 45 -128 147 -132
143 -2 -2 -9 -67 -15 -143 -6 -77 -13 -141 -15 -144 -14 -14 -36 11 -36 40 0
18 -10 52 -22 74 -30 53 -96 129 -105 120 -4 -4 -6 -49 -5 -100 2 -52 -2 -125
-8 -163 -18 -114 -40 -112 -64 7 -38 179 -171 361 -319 435 -63 32 -107 44
-107 30 0 -3 18 -30 40 -60 62 -85 131 -233 128 -275 -3 -33 -5 -35 -37 -32
-19 1 -67 14 -108 29 -40 14 -76 23 -80 19 -10 -9 84 -141 150 -213 61 -65
125 -111 229 -167 35 -18 65 -41 67 -51 3 -17 -4 -18 -85 -12 -125 8 -264 58
-351 125 -39 29 -41 18 -9 -46 24 -47 124 -157 161 -178 29 -16 4 -41 -49 -49
-62 -10 -76 -21 -51 -41 38 -29 180 -92 250 -110 103 -27 313 -24 418 5 44 12
93 29 109 37 27 14 32 14 45 1 13 -13 12 -17 -9 -37 -89 -84 -295 -193 -428
-226 -112 -28 -386 -26 -491 3 -125 35 -246 96 -358 180 -243 183 -286 203
-442 203 -80 0 -89 2 -89 18 0 22 82 65 151 81 65 15 175 13 269 -5 46 -8 94
-13 108 -9 25 6 25 7 -25 58 -28 29 -101 111 -163 182 -63 72 -134 145 -160
163 -67 47 -147 72 -229 72 -119 0 -97 33 46 69 61 16 113 21 207 21 114 0
146 7 117 24 -15 9 -112 142 -181 246 -34 52 -77 110 -94 128 -62 67 -195 132
-301 148 -133 19 75 114 325 147 l95 13 3 38 c7 78 -106 188 -285 278 -137 68
-160 97 -224 272 -23 64 -40 94 -74 127 -24 24 -41 47 -38 52 9 15 83 -2 137
-31z m4722 -791 c23 -10 45 -24 49 -30 11 -18 -37 -82 -55 -74 -37 16 -81 15
-100 -2 -28 -25 -25 -52 9 -86 34 -33 45 -34 181 -18 90 11 98 11 148 -11 61
-26 103 -70 127 -134 58 -150 -98 -286 -250 -217 -60 27 -70 43 -50 81 20 39
39 46 70 26 74 -48 160 30 110 100 -25 37 -67 48 -138 35 -144 -25 -217 -10
-284 61 -40 41 -53 76 -53 137 0 118 120 185 236 132z m-137 -472 c192 -126
291 -197 291 -209 0 -15 -29 -48 -57 -64 -7 -4 -46 16 -89 44 l-77 51 -49 -48
-48 -48 50 -75 c27 -41 50 -79 50 -85 0 -11 -61 -75 -72 -75 -4 0 -33 39 -65
88 -31 48 -88 137 -128 197 -171 264 -195 303 -195 316 0 14 78 99 91 99 4 0
138 -86 298 -191z m-472 -124 c41 -17 103 -62 103 -74 0 -4 -14 -21 -31 -39
l-31 -31 -36 24 c-49 33 -96 33 -118 0 -30 -46 9 -119 125 -236 85 -85 140
-121 187 -122 68 -2 96 66 50 120 l-24 28 -24 -22 c-32 -30 -38 -29 -78 12
l-33 34 44 49 c81 91 74 92 201 -35 l111 -111 -17 -26 c-17 -26 -44 -34 -61
-17 -6 6 -10 -3 -11 -25 -1 -70 -73 -128 -156 -127 -84 1 -163 50 -281 173
-121 126 -157 189 -157 271 0 127 118 204 237 154z m-1163 -212 c20 -21 36
-43 36 -48 0 -13 -326 -336 -605 -600 -188 -179 -309 -295 -653 -630 -79 -77
-149 -141 -156 -143 -7 -2 -29 15 -50 38 -28 31 -34 44 -27 58 11 21 415 420
721 712 124 118 324 313 445 432 121 120 228 218 237 218 9 0 33 -17 52 -37z
m544 -334 c17 -16 32 -35 32 -40 0 -6 -28 -40 -62 -75 l-62 -65 54 -54 c30
-30 59 -55 64 -55 6 0 29 18 52 41 48 47 70 47 105 -2 l22 -31 -49 -49 -48
-49 54 -56 c83 -84 79 -84 155 -9 37 36 70 65 73 65 14 0 72 -65 72 -80 0 -16
-200 -220 -216 -220 -15 0 -494 484 -494 500 0 15 193 210 208 210 4 0 22 -14
40 -31z m-241 -591 l202 -202 67 67 c37 37 70 67 75 67 14 0 79 -61 79 -74 0
-6 -50 -61 -110 -121 l-110 -110 -245 245 c-135 135 -245 250 -245 257 0 16
56 73 72 73 7 0 104 -91 215 -202z m-287 -18 c57 -29 109 -97 116 -154 6 -43
9 -46 36 -46 67 0 159 -66 199 -142 23 -46 25 -115 3 -148 -30 -44 -158 -170
-174 -170 -20 0 -490 470 -490 490 0 16 126 144 170 174 33 22 92 20 140 -4z
m-166 -505 c163 -107 296 -199 296 -203 0 -4 -15 -23 -34 -41 -40 -39 -43 -39
-132 25 l-65 47 -44 -49 c-24 -27 -44 -53 -45 -57 0 -4 20 -38 45 -75 25 -37
45 -72 45 -78 0 -13 -59 -74 -72 -74 -5 0 -39 47 -76 105 -37 58 -122 191
-189 296 -68 105 -123 193 -123 197 0 6 91 102 96 102 2 0 136 -88 298 -195z
m-285 -299 c171 -171 241 -248 236 -257 -17 -30 -49 -59 -66 -59 -9 0 -93 78
-185 173 -92 94 -161 163 -152 152 186 -249 278 -377 278 -388 0 -7 -11 -24
-25 -37 -31 -29 -14 -38 -230 123 -88 66 -167 125 -175 130 -8 6 58 -63 148
-154 89 -90 162 -171 162 -180 0 -16 -56 -76 -65 -68 -2 2 -114 114 -249 248
-195 195 -243 248 -236 261 5 9 30 35 55 59 55 50 30 60 238 -96 75 -57 137
-101 137 -98 0 3 -52 74 -115 159 -63 84 -115 159 -115 167 0 16 89 109 105
109 5 0 120 -110 254 -244z m-387 -383 c131 -131 238 -243 238 -250 0 -16 -49
-73 -63 -73 -7 0 -86 73 -176 163 -90 89 -158 153 -150 142 8 -11 69 -93 137
-183 67 -90 122 -170 122 -179 0 -23 -30 -53 -52 -53 -10 0 -101 62 -201 137
-100 75 -189 141 -197 147 -8 5 65 -68 163 -163 97 -95 177 -178 177 -184 0
-17 -52 -67 -69 -67 -9 0 -126 110 -260 244 l-244 244 53 56 c29 31 58 56 65
56 10 0 248 -171 324 -233 22 -18 13 -5 -114 164 -63 83 -115 157 -115 162 0
17 92 107 109 107 8 0 122 -107 253 -237z m-513 -336 c102 -67 234 -154 293
-192 59 -39 108 -74 108 -79 0 -17 -53 -66 -72 -66 -10 0 -50 21 -89 47 l-70
47 -50 -50 -49 -50 50 -73 c27 -40 50 -78 50 -84 0 -17 -52 -67 -69 -67 -9 0
-41 40 -72 88 -31 48 -118 181 -193 297 l-136 209 47 48 c26 26 51 48 56 48 5
0 93 -55 196 -123z m-353 -452 l198 -205 73 72 73 73 42 -43 43 -42 -110 -110
c-60 -60 -112 -110 -115 -110 -8 0 -484 478 -489 491 -4 13 58 79 75 79 7 0
102 -92 210 -205z m-331 49 c13 -8 30 -25 38 -38 14 -21 12 -26 -54 -96 l-69
-73 60 -61 60 -61 43 43 c23 23 47 42 52 42 15 0 65 -53 65 -69 0 -8 -18 -34
-40 -56 l-40 -41 77 -76 c43 -42 91 -90 107 -107 l30 -31 -34 -35 c-19 -19
-40 -35 -48 -35 -7 0 -119 107 -247 238 -128 130 -237 241 -241 245 -6 6 202
227 214 227 1 0 13 -7 27 -16z m4121 -376 c69 -47 76 -110 25 -233 -32 -77
-53 -195 -35 -195 5 0 59 51 121 112 l113 113 32 -33 33 -32 -158 -158 c-175
-175 -171 -173 -215 -91 -34 64 -28 170 19 301 38 110 35 131 -20 136 -27 3
-39 -3 -70 -36 -38 -40 -51 -75 -51 -138 0 -29 -4 -35 -32 -42 -47 -13 -58 1
-58 67 1 168 182 307 296 229z"/>
<path d="M1480 5511 c0 -5 15 -31 33 -57 33 -51 152 -148 167 -139 26 16 -63
144 -124 180 -43 25 -76 32 -76 16z"/>
<path d="M3639 3434 l-34 -35 58 -55 c31 -30 61 -54 66 -54 12 0 71 68 71 81
0 20 -30 68 -52 83 -37 26 -71 20 -109 -20z"/>
<path d="M3842 3237 l-32 -33 65 -67 c36 -37 72 -67 79 -67 21 0 66 65 66 96
0 17 -13 39 -39 65 -51 52 -93 53 -139 6z"/>
</g>
</svg>
