<?xml version="1.0" standalone="no"?>
<!DOCTYPE svg PUBLIC "-//W3C//DTD SVG 20010904//EN"
 "http://www.w3.org/TR/2001/REC-SVG-20010904/DTD/svg10.dtd">
<svg version="1.0" xmlns="http://www.w3.org/2000/svg"
 width="688.000000pt" height="683.000000pt" viewBox="0 0 688.000000 683.000000"
 preserveAspectRatio="xMidYMid meet">
<metadata>
Created by potrace 1.16, written by Peter Selinger 2001-2019
</metadata>
<g transform="translate(0.000000,683.000000) scale(0.100000,-0.100000)"
fill="#000000" stroke="none">
<path d="M200 6640 c0 -3 -1 -1469 -3 -3257 l-2 -3253 3248 -2 c1787 -2 3252
-1 3255 2 4 3 7 1469 7 3258 l0 3252 -25 0 c-14 0 -1477 1 -3253 3 -1775 1
-3227 0 -3227 -3z m6488 -3258 l2 -3242 -3240 0 -3240 0 0 3245 0 3245 3238
-2 3237 -3 3 -3243z"/>
</g>
</svg>
