<?xml version="1.0" standalone="no"?>
<!DOCTYPE svg PUBLIC "-//W3C//DTD SVG 20010904//EN"
 "http://www.w3.org/TR/2001/REC-SVG-20010904/DTD/svg10.dtd">
<svg version="1.0" xmlns="http://www.w3.org/2000/svg"
 width="684.000000pt" height="683.000000pt" viewBox="0 0 684.000000 683.000000"
 preserveAspectRatio="xMidYMid meet">
<metadata>
Created by potrace 1.16, written by Peter Selinger 2001-2019
</metadata>
<g transform="translate(0.000000,683.000000) scale(0.100000,-0.100000)"
fill="#000000" stroke="none">
<path d="M0 3415 c0 -2759 2 -3415 13 -3415 7 0 48 36 92 80 l80 80 3252 0
3253 0 0 3253 0 3253 75 74 c41 41 75 78 75 82 0 5 -1539 8 -3420 8 l-3420 0
0 -3415z m6680 -5 l0 -3240 -3242 0 -3243 0 158 158 157 157 0 2928 0 2927
2928 0 2927 0 155 155 c85 85 156 155 157 155 2 0 3 -1458 3 -3240z"/>
<path d="M6292 6267 l-62 -62 0 -2792 c0 -2228 -3 -2793 -12 -2793 -7 0 -1263
0 -2792 0 l-2779 0 -66 -65 -66 -65 2923 0 2922 0 0 2920 c0 1606 -1 2920 -2
2920 -2 -1 -31 -29 -66 -63z"/>
<path d="M650 3413 l0 -2788 2785 2785 c1532 1532 2785 2786 2785 2787 0 2
-1253 3 -2785 3 l-2785 0 0 -2787z m195 2567 c32 -34 88 -79 125 -100 65 -39
226 -100 263 -100 35 0 200 -61 297 -110 157 -80 254 -160 358 -297 30 -40 58
-73 62 -73 28 0 6 112 -36 191 -34 61 -161 207 -252 287 -40 35 -72 68 -72 73
0 5 22 -2 48 -15 26 -13 97 -38 157 -56 60 -17 134 -41 164 -52 70 -26 176
-95 220 -143 56 -62 139 -183 182 -266 54 -104 70 -105 100 -6 30 102 22 213
-23 305 -37 75 -159 210 -225 249 -24 14 -42 28 -39 30 9 9 230 -70 311 -111
86 -43 169 -119 210 -191 12 -22 42 -94 65 -160 45 -127 90 -208 135 -243 49
-39 59 -31 52 46 -7 83 -46 199 -92 274 -50 81 -85 159 -85 191 0 37 13 34 33
-8 9 -19 78 -95 153 -168 140 -136 209 -227 277 -363 64 -128 72 -168 71 -364
-2 -202 -16 -274 -82 -406 -70 -142 -193 -326 -208 -312 -3 4 0 40 7 80 17
102 13 219 -10 311 -36 138 -179 387 -223 387 -11 0 -11 -5 12 -170 10 -72 4
-200 -9 -200 -3 0 -14 26 -23 58 -10 31 -34 86 -55 121 -44 75 -143 181 -168
181 -19 0 -19 -6 9 -135 18 -81 21 -221 6 -261 -13 -34 -23 -24 -45 46 -38
117 -117 243 -202 320 -124 112 -234 170 -354 186 -41 5 -49 4 -49 -9 0 -18
40 -52 207 -171 123 -88 162 -128 189 -191 17 -41 18 -85 3 -85 -6 0 -24 9
-39 20 -16 11 -59 28 -97 36 -37 9 -95 24 -128 34 -105 33 -98 2 29 -116 52
-50 117 -97 172 -128 174 -96 284 -183 284 -225 0 -61 -106 -34 -332 85 -179
94 -268 125 -268 93 0 -8 44 -59 98 -115 85 -88 105 -103 160 -123 34 -12 62
-26 62 -30 0 -5 -20 -16 -44 -25 -56 -22 -136 -82 -136 -103 0 -12 7 -14 33
-10 170 31 166 31 347 -6 150 -30 285 -29 368 2 34 13 65 21 68 18 23 -22
-173 -198 -283 -255 -137 -70 -323 -111 -447 -96 -158 18 -365 109 -476 209
-32 29 -148 100 -225 138 -88 43 -150 59 -238 62 -42 1 -80 4 -82 7 -9 9 96
74 145 91 76 25 123 29 230 17 67 -7 106 -8 113 -1 6 6 -6 29 -35 68 -25 32
-68 93 -96 135 -62 92 -129 144 -245 188 -69 27 -92 31 -149 28 -38 -2 -68 -1
-68 3 0 18 47 43 117 61 67 17 99 20 231 15 83 -2 152 -1 152 2 0 4 -24 32
-52 62 -29 31 -82 104 -118 164 -82 138 -99 158 -170 199 -74 43 -112 55 -225
66 -98 10 -216 46 -223 69 -4 11 1 12 19 7 13 -4 48 -9 77 -13 47 -5 61 -2
131 31 109 51 201 68 341 64 101 -3 115 -1 118 14 5 25 -87 92 -197 145 -106
51 -259 153 -307 205 -49 54 -84 111 -116 195 -30 78 -50 203 -31 203 5 0 35
-27 68 -60z m2885 -1466 c27 -25 40 -45 40 -62 0 -22 -123 -149 -657 -684
-362 -362 -662 -658 -668 -658 -14 0 -105 92 -105 107 0 7 140 156 312 331
611 621 1000 1002 1023 1002 8 0 33 -16 55 -36z"/>
<path d="M1530 5441 c0 -5 18 -32 41 -61 22 -28 51 -73 65 -99 28 -57 36 -64
90 -79 55 -16 84 -15 84 2 0 26 -88 134 -142 174 -80 60 -138 86 -138 63z"/>
<path d="M5499 5247 c-52 -35 -79 -82 -79 -137 0 -41 5 -53 40 -93 59 -66 106
-82 204 -67 88 13 103 10 140 -29 20 -21 26 -35 21 -50 -9 -29 -33 -26 -67 6
l-28 27 -40 -39 c-22 -22 -40 -42 -40 -47 0 -13 54 -60 86 -74 44 -19 88 -4
141 48 52 51 70 103 53 153 -13 39 -98 120 -132 127 -13 2 -65 0 -116 -6 l-92
-10 -36 35 c-34 33 -42 68 -17 76 6 2 27 -10 45 -26 l35 -30 39 40 39 40 -42
40 c-51 47 -100 53 -154 16z"/>
<path d="M5223 4968 l-82 -83 204 -205 205 -205 86 86 87 87 -19 25 c-31 42
-44 41 -91 -5 l-43 -42 -57 57 -57 57 39 40 39 40 -32 32 -32 32 -40 -39 -40
-39 -50 49 -50 49 42 43 42 43 -29 30 c-16 16 -31 30 -35 30 -3 0 -42 -37 -87
-82z"/>
<path d="M5032 4755 c-36 -16 -164 -134 -160 -147 2 -4 93 -98 203 -208 l199
-200 49 47 c102 99 125 154 97 228 -12 31 -195 222 -249 260 -48 32 -96 40
-139 20z m177 -219 c99 -100 122 -127 117 -144 -17 -52 -28 -45 -171 98 -119
120 -137 141 -126 154 28 34 55 18 180 -108z"/>
<path d="M4762 4507 l-43 -44 202 -201 c111 -111 205 -202 208 -202 4 0 25 18
46 40 l39 40 -204 205 -205 205 -43 -43z"/>
<path d="M4642 4387 l-32 -33 50 -82 c27 -45 46 -82 43 -82 -3 0 -39 20 -79
45 -39 25 -76 45 -81 45 -5 0 -26 -18 -47 -39 l-38 -39 43 -25 c24 -14 83 -45
131 -69 l87 -43 35 -76 c19 -41 49 -106 67 -143 l32 -67 37 36 38 37 -54 94
c-29 52 -50 94 -47 94 3 0 46 -23 95 -51 l90 -52 42 43 c22 23 37 44 31 47 -5
2 -68 34 -140 71 l-130 67 -65 127 c-36 71 -67 128 -71 128 -3 0 -19 -15 -37
-33z"/>
<path d="M4355 4098 c-32 -17 -85 -71 -101 -100 -20 -38 -17 -87 7 -128 27
-44 234 -251 280 -279 63 -39 116 -24 186 52 82 89 69 134 -90 295 -157 160
-219 195 -282 160z m182 -231 c73 -73 133 -138 133 -144 0 -17 -29 -43 -47
-43 -21 0 -262 239 -269 267 -7 26 11 53 34 53 9 0 76 -60 149 -133z"/>
<path d="M4069 3801 c-24 -16 -68 -53 -96 -82 l-53 -54 205 -205 205 -204 40
39 40 39 -87 88 c-84 84 -86 88 -68 103 11 8 27 15 35 15 8 0 50 -35 92 -77
l78 -78 42 43 43 42 -65 66 c-93 94 -125 107 -195 79 -16 -7 -18 -6 -7 6 6 7
12 32 12 56 0 35 -6 50 -37 84 -68 75 -114 85 -184 40z"/>
<path d="M3781 3526 l-83 -83 201 -202 c111 -110 205 -201 209 -201 4 0 45 38
92 85 l85 85 -33 32 -32 33 -46 -47 -47 -46 -58 56 -58 57 39 40 40 41 -33 32
-33 32 -34 -35 c-19 -19 -39 -35 -45 -35 -6 0 -30 21 -54 46 l-43 46 41 42 41
42 -33 32 -33 32 -83 -84z"/>
<path d="M3622 3339 c-34 -10 -175 -135 -170 -151 2 -5 93 -99 203 -209 l199
-199 40 40 41 40 -80 80 -79 80 26 27 c72 78 65 144 -24 230 -34 34 -106 77
-120 72 -2 0 -18 -5 -36 -10z"/>
<path d="M3215 2958 c-32 -17 -85 -71 -101 -100 -17 -33 -18 -85 -1 -115 22
-39 268 -281 302 -297 18 -9 44 -16 57 -16 52 0 142 81 159 142 12 45 -3 82
-52 137 l-31 33 -44 -43 -44 -43 30 -31 c35 -36 39 -71 9 -80 -25 -8 -31 -3
-176 142 -112 111 -128 138 -99 162 16 14 54 -1 69 -25 13 -22 31 -16 66 20
41 42 37 56 -26 96 -49 31 -84 37 -118 18z"/>
<path d="M2945 2690 l-39 -40 204 -205 205 -205 42 42 43 42 -202 203 c-112
112 -205 203 -208 203 -3 0 -24 -18 -45 -40z"/>
<path d="M2810 2555 l-34 -35 175 -171 c95 -93 167 -167 159 -163 -8 4 -60 40
-115 79 -55 40 -140 100 -190 134 l-89 62 -55 -56 -56 -55 205 -205 205 -205
34 34 34 35 -174 171 c-96 94 -168 168 -161 164 14 -6 170 -115 321 -223 l74
-53 56 56 56 56 -205 205 -206 206 -34 -36z"/>
<path d="M2451 2196 c-36 -37 -51 -58 -46 -68 14 -22 307 -452 317 -463 5 -6
22 5 45 27 l37 37 -32 45 c-18 24 -32 48 -32 52 0 4 14 23 31 40 l32 33 45
-35 c25 -19 48 -34 51 -34 4 0 24 17 44 38 l38 39 -228 163 c-125 90 -233 167
-239 171 -6 5 -31 -13 -63 -45z"/>
<path d="M2251 1983 c-13 -3 -48 -29 -78 -58 -48 -49 -53 -58 -53 -97 0 -60
34 -110 156 -230 150 -146 194 -169 263 -134 36 19 107 97 128 141 l17 36
-100 100 -99 99 -54 -54 -53 -53 33 -31 c22 -20 37 -28 44 -22 8 6 26 -5 54
-34 38 -38 42 -46 32 -65 -22 -40 -50 -25 -168 92 -63 61 -124 125 -135 140
-19 27 -19 29 -3 48 24 25 28 24 68 -11 l34 -29 42 43 41 42 -39 32 c-38 30
-84 54 -99 51 -4 -1 -18 -4 -31 -6z"/>
<path d="M1974 1704 c-16 -8 -60 -45 -97 -82 l-67 -67 205 -205 205 -204 40
39 40 39 -87 89 c-84 84 -87 89 -69 103 11 7 27 14 35 14 9 0 51 -35 93 -77
l78 -78 43 43 42 43 -76 74 c-78 77 -115 95 -159 78 l-26 -10 4 52 c4 49 2 55
-34 94 -63 70 -109 85 -170 55z"/>
<path d="M5833 1589 c-74 -37 -142 -135 -143 -205 0 -33 25 -104 37 -104 4 0
17 9 29 21 19 18 22 28 18 72 -4 41 -1 59 15 85 41 64 131 80 151 27 7 -18 3
-46 -17 -107 -32 -105 -36 -207 -9 -260 10 -21 23 -38 30 -38 14 0 276 261
276 275 0 6 -12 18 -26 29 l-26 19 -92 -92 c-50 -50 -95 -91 -99 -91 -15 0 -6
64 23 147 17 47 30 101 30 120 0 102 -96 152 -197 102z"/>
<path d="M1705 1448 c-32 -17 -85 -71 -101 -100 -21 -41 -17 -90 12 -134 36
-54 210 -229 263 -264 55 -37 96 -38 146 -4 47 32 72 59 91 102 28 62 8 99
-133 243 -152 156 -215 192 -278 157z m182 -231 c73 -73 133 -138 133 -144 0
-17 -29 -43 -47 -43 -22 0 -262 239 -270 268 -6 25 12 52 35 52 9 0 76 -60
149 -133z"/>
<path d="M5337 1092 c-59 -59 -107 -113 -107 -121 0 -15 107 -188 122 -197 15
-10 55 35 83 92 30 62 70 94 125 101 32 5 43 1 64 -20 46 -46 27 -113 -48
-165 -29 -20 -51 -27 -86 -27 -48 0 -80 -17 -80 -41 0 -20 33 -34 81 -34 135
0 271 172 228 287 -45 116 -214 106 -307 -18 -20 -27 -39 -49 -43 -49 -10 0
-39 47 -39 62 0 7 39 53 86 101 l86 89 -23 24 c-12 13 -25 24 -28 24 -4 0 -55
-48 -114 -108z"/>
</g>
</svg>
