<?xml version="1.0" standalone="no"?>
<!DOCTYPE svg PUBLIC "-//W3C//DTD SVG 20010904//EN"
 "http://www.w3.org/TR/2001/REC-SVG-20010904/DTD/svg10.dtd">
<svg version="1.0" xmlns="http://www.w3.org/2000/svg"
 width="582.000000pt" height="581.000000pt" viewBox="0 0 582.000000 581.000000"
 preserveAspectRatio="xMidYMid meet">
<metadata>
Created by potrace 1.16, written by Peter Selinger 2001-2019
</metadata>
<g transform="translate(0.000000,581.000000) scale(0.100000,-0.100000)"
fill="#000000" stroke="none">
<path d="M0 2905 l0 -2905 2910 0 2910 0 0 2905 0 2905 -2910 0 -2910 0 0
-2905z m5690 0 l0 -2785 -2790 0 -2790 0 0 2785 0 2785 2790 0 2790 0 0 -2785z"/>
<path d="M1233 5170 c-95 -20 -283 -113 -283 -140 0 -16 17 -12 78 19 261 131
594 -3 704 -285 15 -40 31 -100 34 -132 12 -110 -29 -260 -98 -359 -44 -64
-19 -108 46 -83 60 22 107 10 162 -42 25 -23 37 -28 58 -22 36 9 39 17 37 93
-4 149 53 293 153 389 78 75 128 106 220 137 213 72 455 -19 581 -218 32 -52
45 -59 45 -24 0 40 -73 149 -152 230 -85 85 -182 140 -308 174 -90 25 -320 24
-405 -1 -116 -34 -105 -37 -193 55 -91 96 -171 148 -287 186 -67 21 -103 26
-215 29 -74 2 -154 -1 -177 -6z"/>
<path d="M778 4863 c-25 -29 -75 -132 -105 -218 -26 -74 -28 -91 -27 -230 0
-138 2 -156 27 -225 42 -114 104 -214 185 -297 58 -59 73 -80 68 -97 -3 -11
-17 -61 -30 -111 -83 -300 46 -638 310 -815 80 -53 98 -59 108 -35 3 9 -10 25
-38 44 -59 41 -142 134 -172 192 -122 242 -38 557 186 690 94 56 147 71 274
78 109 6 110 6 117 34 6 22 1 34 -26 68 -40 47 -52 96 -36 149 24 82 -15 98
-102 42 -91 -59 -168 -82 -276 -82 -158 0 -292 62 -387 178 -139 170 -158 364
-60 594 25 58 17 78 -16 41z"/>
<path d="M5065 4735 l-80 -75 214 -214 c167 -167 218 -213 230 -206 9 5 45 38
80 73 44 45 62 70 58 81 -13 35 -38 29 -86 -18 -26 -25 -51 -46 -57 -46 -13 0
-144 134 -144 147 0 5 18 27 40 48 26 25 40 47 38 60 -5 35 -38 29 -84 -16
l-44 -43 -27 25 c-15 13 -47 43 -71 66 l-44 43 51 56 c49 54 51 57 35 75 -9
11 -20 19 -23 19 -4 0 -42 -34 -86 -75z"/>
<path d="M1528 4676 c-106 -46 -198 -115 -268 -199 -80 -98 -160 -263 -160
-332 0 -29 27 -39 110 -40 l55 0 20 60 c53 154 150 258 310 335 l105 51 0 54
c0 29 -4 65 -10 79 -14 37 -66 34 -162 -8z"/>
<path d="M2138 4538 c-14 -18 -33 -48 -42 -66 l-17 -33 39 -43 c56 -61 92
-127 113 -208 22 -85 23 -135 4 -241 -7 -44 -11 -86 -8 -94 7 -18 99 -63 130
-63 64 0 97 264 54 432 -29 114 -92 229 -169 311 -45 46 -72 47 -104 5z"/>
<path d="M4874 4548 c-64 -50 -85 -99 -64 -152 12 -33 292 -321 332 -342 38
-20 70 -17 109 9 85 57 99 132 36 195 -31 31 -36 33 -56 21 -26 -17 -27 -39
-1 -72 27 -34 25 -63 -4 -82 -18 -12 -30 -14 -43 -6 -32 17 -313 307 -313 323
0 20 32 48 54 48 10 0 30 -9 45 -20 25 -17 30 -18 49 -4 31 21 27 38 -15 73
-45 37 -88 40 -129 9z"/>
<path d="M4674 4359 c-18 -20 -17 -22 154 -186 95 -91 171 -167 169 -170 -3
-2 -33 16 -68 40 -35 24 -129 82 -207 130 -154 93 -154 93 -201 43 l-24 -26
209 -212 c115 -117 212 -214 215 -216 9 -4 39 27 39 41 0 7 -76 87 -170 179
-93 92 -170 169 -170 171 0 3 89 -49 198 -116 242 -148 243 -149 277 -117 14
13 25 28 25 33 0 14 -401 427 -415 427 -7 0 -20 -9 -31 -21z"/>
<path d="M3006 4254 c-3 -9 -6 -33 -6 -54 0 -47 -39 -164 -74 -224 -41 -71
-134 -157 -213 -199 -81 -42 -149 -59 -243 -58 -177 0 -365 122 -442 286 -23
51 -35 65 -52 65 -32 0 -52 -19 -66 -63 -15 -47 -60 -92 -107 -107 -43 -14
-63 -34 -63 -66 0 -16 15 -29 62 -54 120 -64 208 -170 253 -303 27 -82 31
-146 14 -229 -26 -129 -57 -190 -144 -285 -73 -81 -199 -146 -320 -166 -57
-10 -80 -18 -80 -28 0 -19 161 -17 230 4 161 48 262 105 365 206 94 93 168
219 220 374 l27 81 98 29 c55 15 124 41 155 58 64 34 177 130 241 206 97 114
163 284 176 456 5 74 4 87 -9 87 -9 0 -19 -7 -22 -16z"/>
<path d="M4358 4053 c-31 -36 -29 -44 25 -131 30 -48 96 -154 147 -237 51 -82
99 -160 106 -172 18 -29 30 -29 49 1 16 24 15 27 -19 81 -20 30 -36 63 -36 73
0 18 68 92 84 92 5 0 38 -18 74 -41 l65 -41 23 24 c13 12 20 28 16 34 -4 6
-74 56 -157 111 -82 55 -190 128 -239 162 -96 65 -114 71 -138 44z m290 -253
c3 -18 -41 -60 -62 -60 -12 1 -156 213 -156 230 0 17 215 -151 218 -170z"/>
<path d="M4200 3880 c-19 -21 -62 -66 -95 -99 l-59 -61 20 -21 21 -21 36 32
c34 29 37 30 59 16 13 -9 97 -92 187 -186 90 -93 169 -170 177 -170 18 0 45
41 36 55 -4 7 -85 93 -179 191 -95 98 -173 183 -173 189 0 6 11 22 25 35 29
27 31 42 9 64 -20 21 -23 20 -64 -24z"/>
<path d="M1286 3689 c-27 -24 -46 -49 -46 -62 0 -46 190 -184 314 -227 76 -27
199 -36 308 -21 117 16 148 27 148 55 0 32 -27 107 -49 135 l-18 23 -79 -20
c-66 -16 -91 -18 -148 -10 -113 15 -223 67 -307 144 -37 35 -69 30 -123 -17z"/>
<path d="M3986 3649 c-54 -15 -106 -81 -106 -136 0 -15 9 -41 19 -57 22 -33
95 -86 120 -86 9 -1 66 -7 127 -14 115 -13 150 -28 175 -73 16 -30 3 -71 -26
-85 -24 -11 -29 -9 -91 37 -14 10 -54 -19 -54 -41 0 -18 80 -74 107 -74 38 0
81 27 113 72 40 55 39 94 -2 149 -48 62 -89 79 -220 90 -123 11 -151 20 -181
61 -44 59 14 113 75 68 28 -21 30 -21 49 -4 25 22 24 36 -3 62 -32 29 -68 40
-102 31z"/>
<path d="M3734 3404 c-49 -32 -124 -105 -124 -119 0 -5 96 -106 213 -223 l212
-212 67 67 c37 38 70 80 73 94 9 38 -15 88 -70 143 -55 54 -86 70 -126 61 -27
-6 -28 -5 -27 35 0 48 -31 94 -101 148 -51 39 -67 40 -117 6z m118 -104 c56
-59 60 -85 18 -125 l-29 -28 -66 67 c-36 37 -65 74 -65 81 0 19 48 55 73 55
12 0 42 -22 69 -50z m198 -195 c35 -38 50 -62 50 -81 0 -28 -34 -74 -54 -74
-7 0 -45 34 -86 76 l-75 75 37 34 c46 43 62 39 128 -30z"/>
<path d="M3522 3207 l-22 -23 171 -170 c94 -93 176 -180 184 -194 24 -46 -19
-100 -68 -84 -12 4 -100 85 -196 180 -141 140 -178 171 -192 164 -44 -24 -34
-40 128 -203 87 -87 176 -172 197 -188 57 -42 95 -39 151 12 57 53 75 108 50
155 -19 35 -355 374 -371 374 -6 0 -20 -10 -32 -23z"/>
<path d="M3275 2941 c-84 -51 -107 -124 -60 -193 35 -52 93 -76 213 -88 57 -6
115 -15 130 -21 80 -30 102 -107 41 -140 -17 -9 -28 -6 -59 15 -42 28 -66 26
-76 -7 -5 -16 2 -27 27 -48 62 -51 110 -46 172 18 57 61 53 121 -14 189 -48
49 -50 49 -212 68 -107 12 -121 16 -148 42 -32 31 -37 64 -13 88 21 22 46 20
77 -4 22 -18 29 -19 47 -8 11 7 20 20 20 29 0 26 -68 79 -102 79 -7 0 -27 -8
-43 -19z"/>
<path d="M2889 2577 c-44 -29 -79 -82 -79 -119 0 -42 46 -104 94 -128 26 -12
81 -24 146 -30 58 -6 120 -19 139 -28 72 -36 91 -103 37 -132 -26 -13 -27 -13
-92 35 -10 7 -20 3 -36 -13 l-23 -23 43 -41 c38 -35 48 -40 78 -35 72 12 143
98 129 155 -10 44 -56 102 -96 122 -23 12 -78 23 -150 30 -123 12 -164 28
-189 73 -16 29 -9 51 23 71 14 9 27 6 58 -12 32 -19 43 -21 55 -11 29 24 6 67
-53 98 -31 16 -46 14 -84 -12z"/>
<path d="M2689 2374 l-24 -25 177 -172 c192 -187 207 -210 167 -253 -12 -13
-31 -24 -42 -24 -13 0 -87 66 -197 175 -97 96 -184 175 -192 175 -8 0 -23 -9
-33 -20 -19 -21 -17 -23 141 -181 87 -89 177 -174 198 -190 68 -50 129 -35
187 45 32 43 36 83 15 124 -13 25 -356 372 -367 372 -3 0 -16 -12 -30 -26z"/>
<path d="M4497 2162 c-39 -43 1 -122 61 -122 60 0 83 70 37 115 -29 30 -75 33
-98 7z"/>
<path d="M2392 2088 c-55 -42 -79 -101 -60 -146 15 -37 243 -281 302 -323 54
-40 104 -39 151 2 45 40 65 78 65 124 0 33 -13 49 -142 183 -77 81 -155 157
-171 170 -45 32 -94 29 -145 -10z m240 -186 c121 -121 148 -154 148 -177 0
-57 -54 -83 -105 -49 -13 8 -80 76 -149 149 -131 140 -141 159 -110 203 33 47
58 33 216 -126z"/>
<path d="M4702 1977 c-30 -32 -28 -63 7 -98 31 -31 51 -35 81 -19 49 26 43 98
-11 125 -38 20 -52 19 -77 -8z"/>
<path d="M2195 1890 c-18 -19 -14 -24 166 -207 101 -104 196 -199 212 -212 27
-23 28 -23 47 -6 11 10 20 23 20 28 0 15 -401 417 -416 417 -6 0 -19 -9 -29
-20z"/>
<path d="M2021 1716 c-81 -82 -93 -97 -81 -110 18 -22 33 -20 60 9 13 14 31
25 39 25 9 1 98 -84 197 -187 182 -188 182 -188 203 -169 12 11 21 26 21 34 0
8 -81 97 -181 198 l-181 183 33 40 c27 34 30 43 19 56 -7 8 -18 15 -24 15 -6
0 -54 -42 -105 -94z"/>
<path d="M1811 1515 c-52 -47 -66 -83 -51 -129 14 -42 284 -326 333 -349 47
-23 95 -8 141 43 48 53 49 99 5 153 -34 42 -48 45 -73 18 -19 -21 -12 -45 18
-71 39 -31 -5 -101 -53 -85 -28 9 -300 295 -308 323 -6 26 21 62 47 62 10 0
29 -9 43 -20 32 -25 39 -25 63 1 19 21 18 21 -18 55 -52 47 -94 47 -147 -1z"/>
<path d="M1586 1291 l-69 -70 71 -78 c39 -43 134 -141 211 -218 l141 -140 75
75 c41 41 74 79 72 84 -2 5 -10 14 -19 20 -13 8 -27 0 -67 -37 -41 -39 -54
-46 -69 -38 -22 12 -132 135 -132 148 0 5 18 27 40 48 44 42 48 56 25 75 -13
11 -23 5 -66 -35 l-51 -48 -60 59 c-85 84 -85 82 -28 145 36 40 46 57 38 66
-20 25 -44 12 -112 -56z"/>
<path d="M4707 1212 c-58 -64 40 -164 103 -107 23 21 25 46 8 78 -25 48 -81
62 -111 29z"/>
<path d="M3480 1164 c-37 -44 5 -124 67 -124 62 0 82 73 31 120 -26 24 -80 27
-98 4z"/>
<path d="M1391 1096 c-41 -41 -72 -78 -70 -84 2 -6 95 -103 207 -217 197 -201
204 -207 223 -190 10 10 19 23 19 28 0 6 -38 50 -85 98 -47 47 -85 92 -85 98
0 6 18 31 40 55 44 48 47 58 25 76 -13 11 -24 5 -66 -35 l-52 -48 -70 71 -70
72 47 50 c50 53 56 74 28 89 -16 8 -31 -2 -91 -63z"/>
<path d="M4105 1000 l-29 -31 52 -51 51 -52 31 29 c37 35 39 71 6 86 -13 6
-27 20 -29 30 -8 29 -49 23 -82 -11z"/>
<path d="M1216 919 c-15 -22 2 -40 257 -279 26 -25 53 -53 58 -64 13 -21 9
-20 -59 27 -100 67 -337 207 -352 207 -9 0 -29 -13 -45 -30 l-28 -29 131 -138
c72 -76 167 -174 211 -217 68 -68 82 -78 95 -66 9 7 16 20 16 29 0 9 -74 90
-165 181 -90 90 -163 166 -161 168 2 2 68 -37 147 -86 199 -122 268 -162 283
-162 15 0 56 42 56 57 0 16 -400 423 -416 423 -7 0 -19 -9 -28 -21z"/>
<path d="M5162 878 c-59 -10 -106 -41 -152 -100 -93 -117 -74 -256 52 -374 75
-71 111 -88 183 -88 77 0 125 23 192 91 105 107 110 242 12 315 -68 51 -183
25 -270 -62 -31 -30 -62 -72 -70 -93 -7 -20 -16 -37 -20 -37 -14 0 -39 69 -39
108 0 76 82 157 153 150 32 -3 42 2 69 29 20 21 28 37 22 42 -16 17 -88 27
-132 19z m229 -257 c16 -16 29 -39 29 -51 0 -75 -96 -170 -174 -170 -12 0 -34
13 -49 28 -45 47 -33 115 30 173 64 59 118 66 164 20z"/>
<path d="M978 679 c-10 -5 -18 -18 -18 -27 0 -18 398 -422 416 -422 6 0 19 9
29 20 18 20 17 22 -76 118 -239 247 -314 322 -324 322 -5 0 -18 -5 -27 -11z"/>
</g>
</svg>
