<?xml version="1.0" standalone="no"?>
<!DOCTYPE svg PUBLIC "-//W3C//DTD SVG 20010904//EN"
 "http://www.w3.org/TR/2001/REC-SVG-20010904/DTD/svg10.dtd">
<svg version="1.0" xmlns="http://www.w3.org/2000/svg"
 width="690.000000pt" height="690.000000pt" viewBox="0 0 690.000000 690.000000"
 preserveAspectRatio="xMidYMid meet">
<metadata>
Created by potrace 1.16, written by Peter Selinger 2001-2019
</metadata>
<g transform="translate(0.000000,690.000000) scale(0.100000,-0.100000)"
fill="#000000" stroke="none">
<path d="M188 3455 l2 -3255 3255 0 3255 0 0 3255 0 3255 -3257 0 -3258 0 3
-3255z m6502 0 l0 -3245 -3245 0 -3245 0 0 3245 0 3245 3245 0 3245 0 0 -3245z"/>
<path d="M520 3455 l0 -2925 2925 0 2925 0 0 2925 0 2925 -2925 0 -2925 0 0
-2925z m2220 2774 c0 -9 -88 -253 -110 -304 -4 -11 -25 -66 -46 -122 -20 -57
-39 -102 -41 -100 -1 2 13 50 31 108 83 253 124 393 119 406 -9 22 -46 11 -54
-17 -4 -14 -23 -77 -42 -140 -19 -63 -92 -304 -162 -535 -70 -231 -133 -441
-141 -467 -11 -35 -20 -48 -34 -48 -13 0 -23 -14 -35 -52 -10 -29 -27 -63 -38
-76 -19 -20 -20 -27 -9 -54 11 -29 9 -34 -24 -75 -29 -36 -36 -53 -40 -103 -3
-35 0 -69 7 -81 12 -23 8 -22 132 -3 20 3 37 3 37 -1 0 -4 -22 -48 -49 -98
-26 -51 -85 -163 -130 -249 -45 -87 -83 -158 -85 -158 -3 0 14 151 75 660 41
352 67 549 119 930 55 397 59 434 54 442 -7 11 -42 10 -49 -2 -6 -9 -28 -183
-80 -610 -77 -643 -146 -1176 -140 -1085 2 39 7 178 10 310 3 132 8 249 10
260 5 25 20 499 20 625 0 80 -3 95 -17 98 -9 2 -19 -5 -22 -15 -5 -18 -17
-295 -36 -858 -6 -165 -12 -329 -15 -365 -2 -36 -7 -158 -11 -272 -7 -203 -7
-206 15 -219 11 -8 21 -22 21 -31 0 -12 8 -18 23 -18 18 1 52 46 177 237 324
494 530 802 540 808 21 13 27 -6 15 -53 -13 -50 -10 -102 7 -102 27 0 68 34
87 72 28 57 101 108 157 108 54 0 93 40 101 101 3 24 14 59 25 77 15 24 18 40
12 60 -4 15 -8 32 -9 39 0 6 -20 26 -43 43 -34 25 -50 30 -73 25 -16 -4 -29
-2 -29 3 0 5 24 45 53 90 195 301 237 369 237 381 0 12 -27 21 -44 15 -7 -3
-22 -21 -32 -40 -10 -19 -24 -32 -30 -30 -22 8 -24 5 -239 -334 -54 -85 -119
-186 -144 -225 -25 -38 -48 -74 -50 -80 -2 -5 -16 -28 -31 -50 -15 -22 -42
-64 -60 -92 -17 -29 -34 -53 -37 -53 -3 0 1 10 9 23 12 18 111 190 208 362 9
17 66 116 127 220 194 336 320 561 327 582 5 16 2 23 -13 28 -12 3 -25 4 -30
1 -5 -3 -53 -85 -106 -181 -53 -96 -101 -177 -105 -180 -5 -3 -13 7 -16 22 -8
29 15 76 156 336 l64 117 1508 0 1508 0 0 -2785 0 -2785 -2785 0 -2785 0 1
1333 c1 732 3 1323 6 1312 3 -11 8 -24 12 -28 5 -4 76 2 160 13 83 12 161 20
173 18 11 -2 -42 -25 -122 -53 -78 -27 -149 -54 -157 -60 -17 -12 -7 -45 13
-45 8 0 78 24 157 54 78 30 151 57 162 61 11 4 -15 -14 -59 -39 -43 -25 -83
-43 -89 -39 -5 3 -7 2 -4 -3 5 -9 -161 -114 -180 -114 -4 0 -18 -8 -31 -18
-55 -43 22 -72 83 -32 36 24 45 25 45 5 0 -26 45 -17 96 20 74 53 104 68 104
53 0 -21 -37 -76 -64 -93 -22 -14 -24 -22 -23 -78 2 -50 6 -66 25 -85 20 -20
21 -26 10 -40 -7 -9 -55 -68 -106 -130 -77 -93 -92 -115 -82 -127 21 -26 36
-17 94 59 89 117 95 110 12 -14 -42 -63 -76 -123 -76 -132 0 -26 36 -23 55 4
33 48 82 125 109 171 15 27 36 51 46 55 30 12 270 299 270 324 0 30 -61 -18
-139 -112 -40 -47 71 135 125 206 50 66 67 104 45 104 -16 0 -60 -40 -81 -75
-12 -19 -26 -33 -30 -30 -13 8 -23 70 -15 94 9 29 123 95 140 81 17 -14 25 -2
25 39 0 47 6 54 60 78 25 11 56 33 70 48 28 30 120 75 155 75 13 0 37 12 55
26 23 20 38 25 59 21 15 -3 40 0 55 8 25 13 49 10 74 -10 1 -1 -13 -18 -33
-38 -19 -19 -35 -31 -35 -25 0 5 -10 8 -22 6 -22 -3 -57 -64 -265 -458 -36
-69 -69 -129 -73 -135 -4 -5 -35 -64 -70 -130 -35 -66 -73 -139 -86 -163 -27
-48 -92 -170 -188 -351 -36 -69 -66 -131 -66 -139 0 -8 8 -12 21 -10 22 3 32
20 174 295 48 92 112 215 142 273 31 58 87 166 126 240 38 74 73 139 77 143 4
5 43 3 86 -4 l80 -13 -25 -123 c-16 -79 -29 -123 -37 -123 -7 0 -16 -5 -19
-10 -8 -12 -27 -151 -56 -405 -28 -246 -28 -258 -5 -263 28 -6 33 10 41 127 8
115 16 141 44 141 10 0 51 31 90 70 65 63 71 72 71 110 0 33 -4 42 -25 52 -16
7 -24 17 -21 27 3 9 8 33 12 54 3 20 14 41 22 46 12 7 16 22 14 62 -3 67 -13
79 -58 69 -40 -9 -38 -22 -14 103 11 56 12 57 45 57 18 0 40 3 49 6 14 5 16
-32 18 -357 l3 -364 22 -3 c14 -2 23 3 26 15 3 10 6 -70 7 -177 4 -249 3 -237
17 -251 22 -22 42 7 38 54 -2 23 -6 159 -10 302 -12 572 -16 712 -21 750 -5
41 -5 41 46 62 l50 21 1 -41 c1 -23 2 -58 4 -77 1 -19 5 -129 9 -245 10 -322
17 -449 26 -459 5 -5 16 -6 26 -2 18 7 18 64 -1 486 -6 139 0 113 25 -110 28
-248 28 -250 51 -250 16 0 19 8 19 50 l0 50 40 -6 c39 -6 40 -5 46 24 4 17 15
39 25 48 27 24 24 58 -6 72 -26 12 -28 17 -25 68 1 17 -6 48 -14 69 -9 21 -16
49 -16 64 l1 26 13 -25 c7 -14 44 -105 81 -202 48 -123 74 -178 86 -181 42
-11 39 18 -17 149 -63 150 -59 141 -43 127 18 -18 38 -16 46 3 6 16 -145 364
-158 364 -21 0 -12 -41 42 -185 32 -87 57 -160 56 -162 -4 -4 -7 3 -110 249
l-74 177 32 30 33 30 37 -77 c39 -81 79 -166 163 -344 39 -84 55 -108 70 -108
40 0 36 19 -41 175 -39 80 -37 78 65 -72 32 -47 68 -58 68 -22 0 20 -40 83
-139 224 -19 28 -69 99 -109 160 -67 98 -73 111 -61 130 90 141 118 218 126
356 l6 98 36 5 c20 4 216 26 436 51 518 58 497 56 518 61 17 5 24 39 9 48 -5
3 -107 -6 -227 -20 -121 -13 -224 -23 -229 -21 -13 4 95 21 279 42 72 9 211
26 310 38 l180 23 3 27 c4 31 -1 32 -93 17 -137 -23 -450 -70 -460 -69 -5 0
54 16 133 34 79 18 146 36 149 39 12 12 -8 36 -29 36 -13 0 -144 -29 -293 -65
-148 -36 -291 -70 -316 -76 -48 -11 -110 -2 -116 17 -2 6 60 25 139 43 79 18
190 44 248 57 99 23 155 52 136 71 -4 4 -64 -7 -134 -25 -70 -18 -251 -64
-402 -102 -289 -73 -409 -106 -418 -115 -3 -2 -8 -22 -11 -42 -5 -29 -11 -39
-29 -41 -13 -2 -25 3 -28 12 -4 11 -19 16 -45 16 -21 0 -39 4 -39 8 0 4 19 23
42 42 23 19 107 91 187 160 81 69 191 163 246 210 153 130 156 132 205 176 25
22 92 80 150 128 187 156 204 170 245 206 57 50 210 179 255 215 20 17 100 84
176 150 76 66 152 131 168 145 16 14 53 45 81 70 27 25 68 59 89 76 28 22 37
36 33 48 -15 37 -37 27 -144 -64 -60 -51 -180 -153 -268 -228 -88 -75 -205
-175 -259 -222 -54 -47 -134 -114 -176 -150 -43 -36 -107 -91 -143 -123 -40
-36 -71 -56 -78 -51 -7 4 -9 3 -6 -3 4 -6 -46 -55 -110 -109 -64 -55 -148
-126 -187 -160 -39 -33 -150 -127 -246 -209 -96 -82 -177 -152 -180 -155 -3
-3 -37 -31 -76 -62 -38 -31 -92 -80 -118 -109 -78 -88 -109 -98 -132 -44 -9
21 -23 37 -38 41 -13 3 -28 15 -33 27 -6 13 -28 27 -58 36 -39 13 -50 22 -56
44 -4 16 -16 35 -26 42 -17 13 -16 16 13 47 45 47 66 94 59 128 -5 24 -1 31
27 51 57 40 61 57 23 113 -18 26 -25 50 -25 84 0 26 -27 278 -61 561 -70 591
-70 602 -8 652 22 17 46 44 54 60 9 16 29 42 45 59 26 26 30 39 31 88 2 93 7
129 23 161 9 16 16 55 16 85 0 58 -14 76 -58 76 -11 0 -22 7 -26 15 -7 18 -55
20 -91 3 -15 -7 -34 -29 -45 -55 -10 -24 -23 -43 -29 -43 -5 0 -16 -3 -24 -6
-11 -4 -17 12 -26 72 -6 43 -13 80 -16 82 -2 3 -11 2 -20 -1 -23 -10 -21 -37
35 -461 12 -87 19 -160 17 -162 -2 -2 -14 60 -27 139 -12 78 -33 207 -46 287
-13 80 -24 148 -24 153 0 4 -9 7 -20 7 -28 0 -27 -9 25 -345 25 -159 61 -393
80 -520 19 -126 46 -302 60 -389 29 -179 29 -239 1 -101 -39 191 -93 426 -99
431 -12 13 -37 -6 -37 -28 0 -12 6 -49 14 -82 13 -54 78 -341 92 -406 5 -24 5
-24 -9 -5 -8 11 -36 61 -62 110 -26 50 -79 147 -116 217 -38 69 -69 128 -69
131 0 3 -15 32 -34 64 -18 32 -60 110 -93 173 -54 102 -103 195 -194 365 -29
54 -59 72 -59 34 0 -12 39 -95 86 -183 48 -89 105 -195 127 -236 22 -41 55
-103 74 -137 19 -35 33 -63 30 -63 -3 0 -19 24 -35 53 -16 28 -60 104 -97 167
-37 63 -98 170 -137 238 -66 114 -91 141 -104 108 -4 -12 97 -195 351 -631 32
-55 88 -152 125 -215 36 -63 91 -155 122 -205 30 -49 69 -117 87 -150 18 -32
41 -71 51 -85 21 -30 42 -102 32 -111 -4 -3 -34 -11 -67 -18 -33 -7 -84 -24
-114 -37 -29 -13 -58 -21 -65 -17 -15 9 -112 99 -153 142 -36 38 -34 61 3 37
29 -20 58 -20 73 -2 13 16 -3 111 -24 136 -21 27 -38 107 -31 154 6 40 2 55
-48 158 -55 114 -138 308 -132 308 2 0 57 -74 122 -165 66 -90 122 -165 127
-165 19 0 -3 37 -139 244 -80 121 -161 244 -179 271 -18 28 -40 65 -49 83 -17
34 -40 42 -50 17 -5 -15 23 -87 153 -383 39 -90 71 -165 71 -169 0 -3 -15 -2
-32 1 -18 4 -46 8 -63 9 -28 2 -30 -1 -31 -33 -1 -19 -6 -48 -13 -64 -6 -16
-9 -43 -5 -62 3 -18 1 -49 -6 -68 -11 -35 -12 -35 -35 -20 -13 9 -29 13 -34 9
-6 -3 -9 0 -6 7 3 8 -27 47 -70 92 l-76 78 20 42 c12 23 21 46 21 50 0 4 6 14
14 22 18 17 6 58 -31 112 -13 19 -23 41 -23 49 0 7 -13 16 -30 20 -16 3 -30 9
-30 13 0 15 -52 70 -65 70 -7 0 -27 -12 -44 -26 l-31 -26 0 416 c0 229 4 416
8 416 5 0 19 -11 32 -24 16 -18 30 -24 49 -20 14 2 35 6 46 7 48 7 65 26 65
72 0 34 8 55 32 90 l32 45 908 0 c643 0 908 -3 908 -11z m217 -32 c-40 -35
-47 -48 -47 -78 0 -28 -11 -49 -51 -99 -41 -52 -49 -68 -44 -89 19 -77 18 -87
-15 -114 -17 -15 -38 -27 -45 -27 -18 0 -125 -88 -125 -103 0 -7 11 -39 24
-71 17 -42 22 -65 15 -77 -14 -28 -11 -53 11 -77 45 -48 44 -56 -48 -234 -47
-92 -90 -164 -95 -161 -6 3 -7 1 -3 -5 6 -9 -148 -322 -205 -415 l-17 -28 -6
26 c-5 18 -1 36 9 52 20 30 30 212 14 259 -9 29 9 80 214 595 123 310 235 592
248 626 l24 63 95 -1 95 0 -48 -42z m-7 -547 c0 -5 -26 -55 -59 -112 -32 -57
-149 -265 -261 -463 -111 -198 -207 -364 -212 -370 -10 -9 165 338 252 500 21
39 79 151 130 250 51 99 97 186 103 193 11 14 47 16 47 2z m-2142 -759 c75
-76 149 -146 165 -156 15 -9 27 -22 27 -29 0 -7 -3 -7 -8 -1 -4 6 -43 39 -87
74 -44 35 -87 71 -95 80 -40 43 -100 65 -100 37 0 -14 59 -68 203 -186 68 -56
81 -62 98 -52 10 7 22 12 26 12 5 0 0 -5 -9 -11 -10 -5 -18 -16 -18 -24 0 -13
-2 -13 -17 0 -66 54 -199 142 -210 138 -34 -13 -9 -45 94 -120 189 -138 436
-325 491 -371 47 -40 51 -47 38 -60 -14 -14 -20 -11 -63 29 -73 68 -222 172
-238 166 -9 -4 -11 -14 -7 -29 4 -16 -24 4 -93 70 -98 91 -128 107 -132 67 -1
-13 16 -35 50 -64 29 -24 125 -111 214 -194 l163 -150 -19 -26 c-29 -42 -78
-161 -92 -226 -7 -33 -13 -109 -13 -168 l-1 -108 -75 -30 c-41 -17 -84 -31
-95 -31 -11 0 -44 14 -73 33 -51 31 -55 32 -98 21 -25 -7 -62 -9 -84 -6 -33 5
-42 2 -64 -19 l-26 -26 0 749 c0 413 2 750 5 750 3 0 67 -62 143 -139z m1417
-1806 c15 -38 36 -91 46 -117 15 -38 16 -48 5 -48 -7 0 -22 -12 -32 -27 -18
-29 -43 -57 -45 -51 -1 2 -6 34 -13 71 -6 37 -15 67 -21 67 -15 -2 -24 31 -24
101 -1 59 1 67 22 76 28 13 28 13 62 -72z"/>
<path d="M3982 5797 c-21 -6 -34 -18 -38 -33 -5 -19 -13 -24 -40 -24 -19 0
-46 -7 -59 -16 -23 -15 -27 -15 -51 1 -25 16 -30 16 -78 1 -28 -9 -64 -25 -81
-36 -16 -11 -40 -20 -52 -20 -30 0 -49 -22 -57 -65 -6 -30 -3 -43 18 -70 14
-19 26 -39 26 -46 0 -15 -178 -205 -510 -543 -425 -434 -603 -617 -676 -696
-38 -41 -71 -77 -74 -80 -58 -59 -110 -122 -110 -134 0 -29 25 -17 80 39 29
30 58 51 63 48 6 -3 7 -2 4 4 -4 6 85 104 196 218 174 180 259 256 432 387
l30 23 -22 -30 c-12 -16 -42 -50 -67 -75 -48 -46 -60 -80 -28 -80 26 0 362
340 362 366 0 12 7 27 16 35 10 8 14 22 10 40 -6 33 -11 28 199 225 200 188
236 219 260 228 24 8 -28 -43 -130 -128 -91 -76 -315 -293 -315 -306 0 -23 36
-7 93 42 43 38 67 52 84 50 19 -3 53 25 166 135 199 193 257 255 257 276 0 20
-30 23 -49 5 -8 -8 -7 -1 3 20 14 27 22 32 50 32 51 0 61 7 118 74 28 33 55
60 60 58 5 -1 7 2 4 7 -4 5 -2 12 4 16 19 12 10 43 -14 49 -13 3 -30 8 -38 10
-7 2 -28 -1 -46 -7z"/>
<path d="M4305 4952 c-6 -5 -109 -60 -230 -122 -121 -62 -258 -133 -305 -158
-47 -24 -213 -110 -370 -189 -157 -80 -296 -152 -308 -160 -13 -8 -26 -12 -29
-9 -8 8 34 44 77 66 19 10 47 32 63 49 23 27 34 31 76 31 44 0 51 3 75 35 22
28 34 35 62 35 49 0 83 21 123 74 19 25 47 49 62 55 52 18 85 97 63 149 -24
58 -47 54 -94 -17 -13 -20 -18 -21 -45 -11 -22 8 -47 8 -100 0 -107 -17 -105
-16 -105 -59 0 -40 -13 -57 -64 -83 -22 -12 -38 -13 -64 -6 -33 9 -36 7 -97
-51 -35 -34 -71 -61 -80 -61 -9 0 -36 -20 -62 -45 -25 -25 -67 -59 -94 -76
-26 -18 -60 -49 -74 -69 -15 -21 -49 -57 -76 -80 -34 -28 -49 -49 -49 -66 0
-21 5 -24 33 -24 19 0 55 6 80 14 26 8 47 13 47 11 0 -2 -65 -38 -145 -81 -80
-43 -144 -82 -142 -88 11 -33 50 -21 308 95 145 66 278 126 294 133 17 8 95
43 175 79 230 103 371 166 425 190 117 52 190 93 190 107 0 10 -9 14 -28 13
-24 -2 -233 -93 -556 -244 -57 -27 -106 -48 -107 -46 -3 3 296 156 909 464
181 91 208 108 205 126 -3 23 -27 33 -43 19z"/>
<path d="M3870 4492 c-283 -114 -555 -222 -605 -241 -250 -95 -280 -109 -280
-127 0 -27 -17 -32 340 113 33 13 173 67 310 120 138 53 293 112 345 133 52
20 169 65 260 100 91 34 169 66 173 70 10 9 -2 40 -17 39 -6 0 -243 -93 -526
-207z"/>
<path d="M1583 3409 c-16 -18 -32 -37 -38 -43 -5 -6 -28 -34 -50 -61 -22 -28
-68 -83 -102 -122 -57 -65 -79 -113 -54 -113 9 0 -19 -43 -151 -235 -81 -118
-186 -271 -240 -349 -26 -38 -48 -76 -48 -83 0 -20 28 -27 45 -13 12 10 15 10
15 0 0 -6 -21 -32 -46 -57 -38 -37 -45 -49 -42 -74 3 -21 -2 -35 -18 -50 -21
-20 -22 -24 -9 -50 21 -39 32 -43 57 -19 24 22 88 62 88 55 0 -10 -93 -181
-108 -197 -8 -10 -11 -18 -7 -18 5 0 4 -5 -3 -12 -17 -17 -15 -58 2 -58 8 0
27 22 42 50 15 27 31 47 37 43 6 -3 7 -1 3 6 -4 6 25 71 67 149 41 75 97 180
125 232 92 172 108 200 114 194 3 -3 5 1 5 8 -3 24 73 159 85 152 7 -4 8 -3 4
4 -4 7 4 31 17 54 127 224 257 467 257 481 0 35 -21 14 -72 -73 -29 -49 -56
-90 -60 -90 -16 0 -8 68 10 91 48 63 133 209 127 218 -10 18 -23 13 -52 -20z
m-332 -625 c9 -11 22 -14 41 -10 l28 6 -49 -93 c-27 -50 -54 -93 -59 -95 -6
-2 -9 12 -9 30 3 49 -31 50 -74 4 -18 -20 -34 -34 -36 -32 -6 5 128 206 137
206 4 0 13 -7 21 -16z"/>
<path d="M1590 2684 c0 -3 -13 -65 -30 -137 -16 -73 -34 -154 -40 -182 -6 -27
-24 -107 -40 -177 -35 -150 -36 -169 -10 -193 27 -24 48 -13 56 32 3 21 22
121 42 223 20 102 37 214 38 250 1 36 7 85 13 110 15 66 14 80 -9 80 -11 0
-20 -3 -20 -6z"/>
<path d="M5397 2179 c-57 -13 -89 -33 -135 -82 -69 -76 -87 -175 -44 -249 21
-35 28 -35 76 6 33 29 37 36 27 54 -21 39 -13 66 33 111 36 36 49 42 77 39 47
-4 50 -39 8 -97 l-31 -44 30 -30 30 -30 40 32 c52 41 98 43 113 4 31 -83 -113
-181 -189 -127 -21 15 -25 14 -57 -13 -39 -32 -42 -44 -17 -65 52 -47 139 -67
198 -48 54 18 128 85 161 145 63 115 9 245 -101 245 -32 0 -36 3 -36 26 0 89
-86 146 -183 123z"/>
<path d="M4761 1606 c-30 -31 -32 -38 -26 -73 4 -27 1 -53 -11 -82 -16 -41
-16 -42 6 -61 13 -11 19 -24 14 -31 -4 -7 -3 -9 4 -5 6 3 13 2 17 -4 13 -21
34 -8 50 33 l17 42 79 -84 c43 -46 76 -88 72 -94 -3 -5 -1 -7 4 -4 6 4 29 -13
52 -38 23 -25 45 -45 49 -45 4 0 25 18 47 40 43 44 44 39 -25 111 -62 65 -184
194 -236 250 -80 85 -76 83 -113 45z"/>
<path d="M5266 1531 c-21 -22 -37 -44 -35 -49 5 -13 78 -92 85 -92 11 0 84 74
83 85 -1 5 -22 29 -48 52 l-47 42 -38 -38z"/>
<path d="M5643 1275 c-30 -24 -31 -29 -31 -90 1 -38 -3 -70 -10 -77 -7 -7 -12
-18 -12 -24 0 -16 64 -84 78 -84 6 0 16 17 23 38 6 20 13 40 16 44 4 7 113
-105 199 -204 27 -31 51 -57 54 -57 3 0 25 18 49 39 l44 40 -44 47 c-23 27
-92 101 -153 167 -61 65 -125 134 -141 152 -17 19 -33 34 -35 34 -3 0 -19 -11
-37 -25z"/>
<path d="M6400 6030 c0 -5 11 -10 25 -10 23 0 24 -2 13 -20 -10 -16 -10 -24 1
-41 10 -17 10 -23 0 -29 -6 -5 -9 -17 -6 -29 3 -14 0 -21 -9 -21 -8 0 -14 -4
-14 -10 0 -5 19 -11 43 -11 28 -2 33 -3 15 -6 -34 -5 -47 -39 -24 -61 12 -12
16 -13 16 -3 0 11 3 11 15 1 8 -7 15 -25 15 -41 0 -26 -2 -28 -40 -26 -27 2
-40 -2 -40 -10 0 -9 17 -13 53 -13 l53 0 0 108 c-1 59 -5 113 -9 119 -4 7 -3
22 3 33 8 14 8 26 0 40 -7 14 -7 20 0 20 5 0 10 5 10 10 0 6 -27 10 -60 10
-33 0 -60 -4 -60 -10z"/>
</g>
</svg>
