<?xml version="1.0" standalone="no"?>
<!DOCTYPE svg PUBLIC "-//W3C//DTD SVG 20010904//EN"
 "http://www.w3.org/TR/2001/REC-SVG-20010904/DTD/svg10.dtd">
<svg version="1.0" xmlns="http://www.w3.org/2000/svg"
 width="687.000000pt" height="683.000000pt" viewBox="0 0 687.000000 683.000000"
 preserveAspectRatio="xMidYMid meet">
<metadata>
Created by potrace 1.16, written by Peter Selinger 2001-2019
</metadata>
<g transform="translate(0.000000,683.000000) scale(0.100000,-0.100000)"
fill="#000000" stroke="none">
<path d="M0 3415 l0 -3415 3435 0 3435 0 0 3415 0 3415 -3435 0 -3435 0 0
-3415z m6360 10 l0 -2925 -2925 0 -2925 0 0 2925 0 2925 2925 0 2925 0 0
-2925z m150 2635 c0 -14 -7 -20 -22 -21 -17 -1 -19 -2 -6 -6 35 -9 30 -93 -5
-93 -6 0 -2 -6 9 -14 14 -10 20 -25 19 -53 l0 -38 -52 -3 c-48 -3 -53 -1 -53
17 0 12 4 21 9 21 5 0 11 14 15 30 3 19 12 30 23 31 16 1 16 2 2 6 -16 4 -29
31 -29 60 0 6 7 19 16 27 14 15 13 16 -10 16 -19 0 -26 5 -26 20 0 18 7 20 55
20 48 0 55 -2 55 -20z m-863 -5668 c-40 -84 -42 -86 -65 -73 -12 6 -27 21 -34
34 l-12 22 -6 -25 c-7 -29 -47 -40 -56 -16 -8 20 -44 21 -44 1 0 -15 -32 -18
-72 -8 -25 6 -23 33 2 33 17 0 20 7 20 40 0 22 5 40 10 40 6 0 10 -21 10 -47
l0 -48 19 41 c27 60 38 62 60 13 l20 -43 3 40 c4 47 21 50 48 9 l20 -30 0 33
c0 34 14 43 24 16 3 -9 6 -30 6 -47 0 -30 2 -29 25 21 14 29 29 51 34 47 6 -3
1 -25 -12 -53z m-879 36 c20 -20 13 -30 -15 -24 -27 6 -27 6 -8 -9 11 -9 26
-13 33 -10 8 3 22 5 33 5 14 0 19 7 19 26 0 24 2 26 33 20 17 -3 39 -15 48
-26 17 -19 17 -19 22 0 6 24 52 37 72 20 23 -19 18 -33 -9 -26 -14 3 -28 0
-35 -8 -14 -16 -4 -46 15 -46 8 0 11 6 8 15 -4 10 0 15 14 15 13 0 26 11 34
27 16 33 40 40 62 18 15 -15 17 -15 32 -1 18 19 20 19 45 6 13 -8 25 -7 39 0
33 18 60 -4 60 -48 0 -56 -40 -83 -70 -47 -11 13 -14 13 -27 0 -19 -19 -37
-19 -54 1 -11 14 -13 14 -21 0 -10 -19 -58 -22 -58 -4 0 9 -3 9 -12 0 -24 -24
-98 -7 -98 23 0 9 -8 6 -25 -10 -13 -14 -36 -25 -50 -25 -20 0 -25 5 -25 25 0
20 -5 25 -25 25 -18 0 -25 -5 -25 -20 0 -24 -44 -38 -65 -20 -23 19 -18 33 10
26 14 -4 25 -2 25 4 0 5 -6 10 -14 10 -24 0 -39 26 -26 49 12 23 40 27 58 9z
m953 2 c13 -8 25 -7 39 0 36 19 62 -4 58 -52 -4 -49 -27 -70 -58 -50 -12 7
-20 8 -20 2 0 -5 -16 -10 -35 -10 -28 0 -35 4 -35 20 0 11 9 28 20 37 11 10
20 21 20 26 0 5 -7 4 -15 -3 -23 -19 -39 -1 -19 21 20 22 20 22 45 9z"/>
<path d="M650 3425 l0 -2785 2785 0 2785 0 0 2785 0 2785 -2785 0 -2785 0 0
-2785z m238 2607 c155 -157 202 -186 408 -256 316 -107 545 -239 641 -370 l45
-61 -7 50 c-19 123 -65 195 -198 310 -92 79 -133 122 -125 131 3 2 31 -5 64
-17 32 -11 94 -24 136 -29 235 -27 434 -193 581 -485 l45 -88 17 39 c27 66 38
133 33 220 -4 73 -10 94 -47 169 -33 66 -59 103 -118 160 -73 72 -74 74 -49
81 35 8 128 -4 174 -23 109 -45 184 -132 269 -312 61 -129 110 -210 157 -260
36 -38 105 -85 114 -77 9 10 -43 154 -96 266 -63 134 -89 215 -71 226 12 7
152 -128 233 -226 155 -187 263 -391 313 -595 26 -107 23 -325 -5 -432 -48
-179 -146 -345 -300 -505 -52 -54 -97 -97 -99 -94 -3 2 7 42 22 88 40 126 59
289 46 398 -6 48 -18 107 -26 131 -26 72 -81 162 -128 208 l-45 44 5 -134 c6
-146 -2 -198 -39 -244 l-22 -28 -13 86 c-18 129 -76 235 -162 296 l-26 19 0
-132 c0 -116 -3 -137 -23 -183 -13 -28 -32 -59 -43 -69 -18 -17 -19 -16 -19
18 0 58 -37 185 -75 257 -64 121 -193 226 -305 248 l-34 6 36 -44 c57 -71 167
-243 183 -288 15 -45 10 -49 -33 -27 -50 25 -178 64 -236 71 -56 7 -58 7 -47
-13 24 -45 158 -155 241 -198 105 -53 117 -63 178 -142 26 -34 72 -81 102
-103 30 -23 55 -46 55 -53 0 -6 -17 -15 -37 -20 -55 -14 -152 14 -295 84 -99
49 -243 99 -286 100 -18 0 41 -85 88 -127 53 -48 115 -83 183 -103 44 -14 56
-30 22 -30 -29 0 -168 -48 -222 -77 -26 -14 -57 -37 -70 -50 l-23 -25 45 7
c25 3 128 7 230 8 182 2 187 1 286 -30 171 -53 266 -53 377 3 26 14 47 20 47
15 0 -19 -101 -136 -162 -187 -123 -104 -234 -155 -383 -175 -202 -26 -445 54
-740 246 -295 191 -374 232 -460 239 -26 2 -48 6 -50 8 -9 8 112 71 183 94 52
18 99 26 158 27 l83 2 -16 25 c-110 174 -204 274 -302 323 -66 33 -82 37 -153
37 l-80 0 19 33 c38 65 215 127 364 127 32 0 59 4 59 9 0 4 -31 60 -68 122
-38 63 -81 136 -96 162 -51 90 -139 131 -344 161 -118 18 -192 46 -227 88 -40
47 -34 51 58 44 79 -6 88 -5 264 48 100 30 211 58 245 62 l62 7 -49 44 c-69
62 -179 139 -246 173 -209 106 -326 315 -303 542 4 37 8 68 11 68 2 0 57 -53
121 -118z m4814 -638 c58 -29 226 -188 266 -252 77 -121 67 -178 -51 -293
l-81 -79 -221 217 c-121 120 -226 227 -234 237 -12 18 -6 27 76 107 112 108
140 115 245 63z m-164 -455 c127 -127 228 -236 225 -242 -3 -7 -22 -26 -42
-44 l-37 -32 -234 234 -234 235 39 40 c21 22 42 40 45 40 4 0 111 -104 238
-231z m-191 -91 c99 -101 188 -198 198 -217 25 -51 17 -138 -18 -184 -60 -79
-151 -102 -232 -59 -22 11 -121 102 -220 201 l-179 181 39 40 c21 22 42 40 45
40 3 0 88 -81 187 -180 112 -110 192 -182 209 -186 22 -6 32 -2 51 20 13 15
23 33 23 41 0 21 -41 67 -214 242 l-160 163 39 40 c21 22 42 40 45 40 3 0 87
-82 187 -182z m-450 -218 c47 -21 219 -182 264 -246 15 -22 31 -53 35 -67 8
-34 14 -34 39 3 11 16 22 30 25 30 3 0 23 -17 43 -38 l37 -38 -102 -107 c-64
-65 -114 -108 -131 -113 -86 -21 -162 23 -319 184 -114 118 -142 164 -143 234
0 59 42 122 104 155 53 28 92 29 148 3z m-1070 -222 c29 -29 53 -57 53 -63 0
-7 -165 -173 -367 -371 -203 -197 -462 -451 -578 -565 -359 -352 -486 -474
-494 -477 -4 -1 -34 25 -66 59 l-59 61 195 192 c107 105 368 360 580 566 211
206 447 437 524 512 77 76 144 138 150 138 5 0 33 -23 62 -52z m931 -251 l233
-233 -43 -42 -42 -42 -235 235 -235 235 39 40 c21 22 42 40 45 40 3 0 110
-105 238 -233z m-273 -187 l190 -190 57 57 58 57 40 -39 c22 -21 40 -42 40
-47 0 -7 -150 -161 -183 -187 -17 -13 -37 4 -248 215 -126 126 -229 233 -229
238 0 11 70 86 80 86 3 0 91 -85 195 -190z m-433 -202 l-64 -60 53 -54 53 -54
58 57 58 57 35 -34 c19 -19 35 -39 35 -44 0 -6 -23 -34 -52 -63 l-52 -53 64
-65 64 -65 66 65 66 65 37 -38 37 -38 -106 -108 -106 -109 -236 237 -237 236
105 105 105 105 40 -40 40 -41 -63 -61z m-177 -408 l190 -190 57 57 58 57 40
-39 c22 -21 40 -43 40 -48 0 -4 -44 -51 -97 -103 l-97 -95 -235 235 -235 236
39 40 c21 22 42 40 45 40 3 0 91 -85 195 -190z m-257 -46 c55 -39 92 -98 92
-146 0 -36 2 -38 24 -32 40 10 90 -13 144 -65 60 -58 79 -109 62 -171 -8 -29
-34 -62 -102 -130 l-91 -92 -236 236 -236 236 80 81 c44 45 94 90 110 101 41
26 101 19 153 -18z m-356 -375 c62 -39 142 -90 178 -114 36 -23 111 -72 168
-109 102 -66 103 -66 86 -89 -10 -12 -30 -33 -46 -45 l-29 -24 -32 24 c-85 63
-78 63 -135 5 l-51 -52 40 -58 c35 -50 38 -61 27 -75 -16 -20 -71 -72 -74 -69
0 1 -77 121 -169 267 -92 146 -173 274 -180 285 -12 18 -8 25 38 73 28 28 55
52 59 52 4 0 58 -32 120 -71z m-124 -402 l232 -233 -42 -41 -43 -42 -159 157
c-88 86 -156 150 -151 142 5 -8 62 -95 126 -193 l118 -179 -41 -39 c-22 -21
-46 -36 -52 -32 -6 4 -85 57 -176 118 -91 62 -172 115 -180 120 -8 4 56 -63
142 -150 l156 -159 -21 -27 c-52 -64 -38 -73 -293 182 l-234 234 66 66 66 66
171 -117 c95 -65 173 -117 174 -116 2 2 -49 80 -113 176 l-116 173 63 63 c35
35 66 64 69 64 3 0 110 -105 238 -233z m-433 -437 l230 -230 -43 -42 -42 -43
-161 160 c-176 175 -176 176 -7 -77 99 -148 99 -150 81 -171 -25 -31 -55 -57
-63 -57 -4 0 -86 54 -183 120 -97 66 -177 118 -177 116 0 -2 68 -71 150 -153
l151 -148 -43 -42 -43 -43 -230 230 c-126 126 -231 233 -232 237 -2 5 26 37
61 72 l64 64 79 -55 c203 -142 275 -189 268 -177 -5 8 -57 87 -117 176 -59 89
-108 165 -108 170 0 11 113 123 125 123 5 0 114 -103 240 -230z m-640 -345
c55 -35 127 -81 160 -101 58 -37 286 -184 294 -190 5 -4 -48 -66 -69 -81 -14
-10 -27 -5 -76 27 l-59 40 -52 -52 -52 -51 41 -60 40 -59 -73 -76 c-41 -41
-105 -106 -144 -144 l-70 -68 -235 235 -235 235 43 42 42 43 193 -193 192
-192 55 55 c30 30 59 55 64 55 5 0 21 -10 35 -22 l25 -23 -19 30 c-10 17 -83
133 -162 258 -80 126 -147 235 -150 244 -6 15 82 113 102 113 5 -1 55 -30 110
-65z m3728 -319 c55 -23 72 -51 71 -113 -1 -46 1 -53 15 -48 46 19 96 17 131
-7 103 -70 82 -221 -52 -364 -67 -71 -177 -134 -235 -134 -40 0 -93 20 -112
44 -13 15 -8 23 44 76 l58 59 30 -15 c98 -51 230 104 155 183 -12 13 -28 23
-35 23 -24 0 -77 -31 -116 -68 l-37 -36 -32 31 -31 32 36 45 c46 55 57 99 32
126 -38 42 -121 9 -157 -62 -18 -34 -18 -39 -3 -74 l16 -38 -53 -53 c-29 -29
-57 -53 -63 -53 -6 0 -19 15 -30 33 -27 45 -25 120 4 180 45 94 168 206 255
233 54 17 70 17 109 0z m-4244 -100 l34 -35 -57 -59 -57 -60 54 -55 54 -55 56
56 57 56 35 -34 c19 -19 35 -39 35 -44 0 -6 -23 -34 -52 -63 l-51 -52 96 -96
c54 -52 97 -99 97 -103 0 -4 -18 -26 -40 -47 l-40 -39 -230 229 c-127 126
-230 234 -230 240 0 13 182 195 195 195 6 0 26 -15 44 -34z"/>
<path d="M5557 5272 l-27 -28 153 -152 c164 -164 173 -168 203 -110 14 27 14
32 -10 71 -31 53 -203 223 -240 237 -40 15 -50 13 -79 -18z"/>
<path d="M4776 4514 c-24 -23 -20 -46 16 -95 41 -57 188 -203 230 -229 45 -27
76 -26 89 4 20 43 1 74 -109 185 -141 144 -189 172 -226 135z"/>
<path d="M3471 3188 l-31 -33 55 -55 54 -54 31 29 c41 40 40 74 -5 114 -45 39
-66 39 -104 -1z"/>
<path d="M3661 2999 l-33 -31 63 -64 64 -65 32 38 c18 21 33 46 33 55 0 10
-16 36 -36 58 -45 49 -76 52 -123 9z"/>
</g>
</svg>
