<?xml version="1.0" standalone="no"?>
<!DOCTYPE svg PUBLIC "-//W3C//DTD SVG 20010904//EN"
 "http://www.w3.org/TR/2001/REC-SVG-20010904/DTD/svg10.dtd">
<svg version="1.0" xmlns="http://www.w3.org/2000/svg"
 width="659.000000pt" height="681.000000pt" viewBox="0 0 659.000000 681.000000"
 preserveAspectRatio="xMidYMid meet">
<metadata>
Created by potrace 1.16, written by Peter Selinger 2001-2019
</metadata>
<g transform="translate(0.000000,681.000000) scale(0.100000,-0.100000)"
fill="#000000" stroke="none">
<path d="M0 3407 l0 -3407 3295 0 3295 0 0 113 0 112 -120 120 -120 120 0
2932 0 2933 -2933 0 -2932 0 -155 155 -155 155 3210 3 3210 2 -3215 3 -3215 2
-82 82 -83 83 0 -3408z m6210 -7 c0 -1534 -1 -2790 -3 -2790 -1 0 -1258 1256
-2792 2790 l-2790 2790 2793 0 2792 0 0 -2790z m-4931 -2184 c41 -42 42 -41
-89 -171 -55 -55 -100 -107 -100 -116 0 -8 14 -28 30 -44 36 -34 37 -42 8 -72
-29 -31 -48 -29 -83 7 -16 16 -33 30 -39 30 -6 0 -26 -15 -46 -34 l-35 -35
-32 29 c-41 36 -41 57 -3 94 17 16 30 34 30 40 0 6 -45 56 -100 111 -55 55
-100 105 -100 111 0 6 12 24 27 40 26 28 31 29 142 35 64 3 170 6 237 7 l120
2 33 -34z"/>
<path d="M5156 6025 c-22 -52 -43 -148 -45 -207 -3 -70 -28 -155 -66 -223 -50
-89 -63 -100 -275 -229 -41 -25 -97 -68 -125 -96 -27 -27 -54 -50 -60 -50 -8
0 -11 54 -11 183 1 192 -10 266 -51 325 l-18 27 -6 -90 c-6 -97 -33 -177 -88
-264 -39 -61 -78 -97 -181 -166 -47 -32 -101 -71 -121 -86 -65 -51 -64 -53
-64 136 l0 171 -37 75 c-21 41 -45 83 -56 92 -17 16 -18 13 -18 -61 -1 -86
-22 -168 -66 -257 -41 -82 -116 -204 -148 -240 -83 -94 -160 -245 -202 -391
-52 -185 -10 -443 103 -630 45 -73 160 -207 206 -238 20 -14 38 -24 40 -23 1
2 -10 32 -25 67 -37 90 -37 231 1 411 33 155 33 246 2 359 -3 8 -1 21 4 29 20
31 95 -53 132 -148 14 -38 19 -43 24 -26 30 84 67 145 121 196 150 142 166
154 177 125 11 -27 -15 -92 -120 -296 -91 -178 -106 -213 -110 -267 -5 -53 -3
-64 11 -69 35 -14 146 120 227 274 48 91 174 251 232 295 39 29 73 32 70 7 -6
-53 -74 -284 -92 -315 l-22 -38 41 6 c91 12 147 67 332 327 25 36 58 76 72 89
23 22 28 23 41 10 12 -12 12 -24 -1 -88 -24 -113 -86 -223 -194 -344 -80 -88
-224 -178 -358 -222 -81 -26 -54 -39 80 -38 70 0 142 7 188 18 154 36 163 22
52 -85 -61 -59 -102 -89 -172 -124 -51 -25 -104 -46 -118 -46 -53 0 -10 -12
59 -17 44 -3 116 2 185 13 146 23 160 14 89 -52 -58 -54 -279 -167 -370 -189
-105 -25 -194 -31 -290 -19 -49 6 -101 14 -115 19 l-25 8 20 -23 c59 -66 338
-223 460 -259 88 -26 286 -45 379 -36 158 14 203 29 381 129 101 56 125 75
280 230 94 92 186 175 205 184 34 16 35 16 9 20 -30 4 -119 -35 -199 -86 -30
-19 -82 -45 -116 -58 -54 -20 -204 -54 -240 -54 -26 0 -27 30 -3 66 37 54 118
102 267 156 162 58 199 78 274 151 67 64 119 161 179 337 21 63 39 116 39 119
0 3 -13 -15 -28 -40 -46 -72 -194 -204 -267 -239 -110 -53 -297 -52 -385 1
-42 26 -30 44 62 93 111 58 248 158 309 223 30 33 71 91 91 129 34 65 87 216
103 294 4 19 20 64 36 100 l29 65 -102 -107 c-191 -198 -313 -280 -424 -282
-34 -1 -59 4 -61 10 -2 7 29 36 69 67 91 68 187 166 245 249 78 110 159 296
193 444 45 190 118 333 221 428 32 30 59 57 59 60 0 14 -93 4 -156 -15 -130
-40 -230 -104 -311 -201 -57 -68 -137 -196 -168 -272 -27 -65 -93 -166 -128
-194 -9 -8 -24 -12 -34 -10 -16 3 -18 15 -15 133 4 157 -12 243 -69 361 -41
85 -46 115 -28 177 15 55 5 69 -15 22z m304 -813 c0 -29 -71 -138 -123 -191
-27 -27 -71 -61 -98 -76 -66 -35 -78 -26 -59 47 20 81 29 94 74 114 22 11 72
43 110 72 74 55 96 63 96 34z"/>
<path d="M3020 4314 c-28 -26 -50 -52 -50 -58 0 -17 1403 -1416 1421 -1416 22
0 99 82 99 105 0 13 -245 263 -691 708 -380 378 -700 692 -710 698 -16 8 -28
1 -69 -37z"/>
<path d="M968 1143 c-43 -2 -78 -7 -78 -11 0 -4 24 -32 54 -61 l55 -54 60 58
c34 32 61 62 61 67 0 4 -17 7 -37 6 -21 -1 -73 -4 -115 -5z"/>
</g>
</svg>
