<?xml version="1.0" standalone="no"?>
<!DOCTYPE svg PUBLIC "-//W3C//DTD SVG 20010904//EN"
 "http://www.w3.org/TR/2001/REC-SVG-20010904/DTD/svg10.dtd">
<svg version="1.0" xmlns="http://www.w3.org/2000/svg"
 width="1587.000000pt" height="2245.000000pt" viewBox="0 0 1587.000000 2245.000000"
 preserveAspectRatio="xMidYMid meet">
<metadata>
Created by potrace 1.16, written by Peter Selinger 2001-2019
</metadata>
<g transform="translate(0.000000,2245.000000) scale(0.100000,-0.100000)"
fill="#000000" stroke="none">
<path d="M2767 16438 c-16 -12 -17 -40 -15 -323 2 -245 6 -310 16 -310 20 0
622 607 622 627 0 17 -19 18 -303 18 -227 0 -307 -3 -320 -12z"/>
<path d="M3835 16438 c-24 -13 -133 -118 -293 -282 -65 -65 -123 -124 -130
-130 -59 -50 -66 -72 -26 -82 38 -10 426 6 448 18 35 19 466 455 466 472 0 14
-25 16 -222 16 -146 -1 -230 -4 -243 -12z"/>
<path d="M4713 16417 c-71 -60 -443 -440 -443 -452 0 -7 7 -16 16 -19 24 -9
319 -7 396 3 l68 9 230 230 c126 127 230 238 230 246 0 14 -28 16 -229 16
l-229 0 -39 -33z"/>
<path d="M5462 16258 c-108 -106 -217 -216 -244 -244 l-48 -51 27 -10 c16 -5
62 -9 103 -8 41 1 136 2 210 3 l135 2 228 228 c219 219 247 248 247 265 0 4
-104 7 -231 7 l-232 0 -195 -192z"/>
<path d="M6556 16438 c-10 -6 -122 -113 -249 -238 -169 -168 -228 -233 -223
-245 5 -14 29 -16 218 -14 117 1 223 6 236 10 12 5 126 112 254 238 163 162
229 234 225 245 -6 14 -35 16 -224 16 -139 0 -225 -5 -237 -12z"/>
<path d="M7226 16216 c-126 -127 -231 -236 -233 -243 -9 -26 37 -30 250 -25
l217 5 235 234 c129 128 235 240 235 248 0 13 -35 15 -237 14 l-238 -1 -229
-232z"/>
<path d="M8343 16421 c-23 -16 -58 -50 -79 -75 -21 -25 -44 -46 -51 -46 -7 0
-13 -4 -13 -9 0 -5 -67 -77 -150 -161 -82 -83 -150 -157 -150 -165 0 -22 54
-27 258 -22 152 3 196 7 215 20 44 29 467 456 467 472 0 13 -31 15 -228 15
l-229 0 -40 -29z"/>
<path d="M9041 16208 c-196 -195 -240 -244 -228 -253 24 -17 408 -19 448 -2
38 16 489 462 489 484 0 10 -46 13 -234 13 l-233 0 -242 -242z"/>
<path d="M10097 16351 c-197 -190 -377 -375 -377 -387 0 -21 53 -25 250 -20
201 4 233 9 246 34 5 9 99 105 209 212 186 182 235 234 235 253 0 4 -104 7
-230 7 l-230 0 -103 -99z"/>
<path d="M11074 16421 c-21 -16 -116 -107 -210 -202 -94 -96 -185 -186 -203
-202 -37 -32 -41 -64 -8 -72 17 -4 421 0 436 4 17 5 471 472 471 484 0 15 -22
17 -223 17 l-224 0 -39 -29z"/>
<path d="M11766 16211 c-203 -203 -238 -242 -227 -255 11 -13 43 -14 219 -10
114 3 216 7 227 9 16 3 399 374 489 474 l19 21 -244 0 -244 0 -239 -239z"/>
<path d="M12900 16437 c-14 -8 -128 -116 -253 -242 -163 -163 -225 -231 -217
-239 6 -6 51 -11 101 -12 120 -2 129 -10 129 -114 0 -42 3 -80 6 -83 13 -12
41 13 259 232 244 245 233 228 234 373 1 67 -2 79 -18 88 -29 15 -211 13 -241
-3z"/>
<path d="M3190 15803 c-21 -21 -90 -89 -152 -152 -62 -62 -119 -119 -127 -125
-7 -6 -30 -29 -50 -51 -20 -22 -52 -55 -71 -73 l-35 -33 0 -231 c0 -177 3
-232 13 -235 6 -3 118 102 247 232 l235 236 0 229 c0 143 -4 231 -10 235 -6 3
-28 -11 -50 -32z"/>
<path d="M13114 15768 c-16 -12 -31 -27 -33 -32 -2 -4 -11 -16 -21 -25 -61
-56 -250 -246 -250 -251 0 -4 -8 -11 -19 -16 -10 -5 -44 -38 -75 -73 l-56 -64
0 -233 c0 -128 4 -235 8 -238 5 -3 116 102 248 232 l239 237 3 234 c2 129 -1
238 -6 243 -5 5 -21 -1 -38 -14z"/>
<path d="M3009 14716 c-123 -123 -231 -226 -239 -228 -13 -4 -15 -40 -15 -248
0 -190 3 -244 13 -248 7 -2 117 101 245 228 l232 233 3 235 c2 129 -1 239 -6
244 -5 5 -105 -88 -233 -216z"/>
<path d="M12899 14651 l-239 -242 0 -229 c0 -205 2 -230 16 -230 19 0 462 444
474 475 13 34 13 452 0 460 -7 4 -112 -95 -251 -234z"/>
<path d="M2995 13791 c-126 -126 -232 -237 -236 -247 -4 -11 -8 -119 -8 -241
-1 -185 1 -223 13 -223 13 0 456 438 477 471 5 8 9 116 9 242 0 180 -3 227
-13 227 -7 0 -116 -103 -242 -229z"/>
<path d="M12935 13795 c-104 -107 -209 -214 -232 -239 l-43 -45 0 -235 c0
-129 4 -237 8 -240 5 -3 117 104 250 236 l242 242 -2 235 c-3 201 -5 236 -18
238 -8 0 -100 -86 -205 -192z"/>
<path d="M2991 12881 l-241 -244 0 -228 c0 -150 4 -230 11 -234 5 -4 118 101
250 232 l239 240 0 224 c0 123 -4 230 -9 238 -7 12 -64 -41 -250 -228z"/>
<path d="M12897 12849 l-232 -232 -5 -230 c-4 -162 -2 -235 6 -245 10 -13 51
24 253 227 l241 243 -2 230 c-2 178 -6 232 -16 236 -7 2 -117 -101 -245 -229z"/>
<path d="M4352 11468 l3 -1463 307 -3 308 -2 2 562 3 563 165 2 165 3 344
-554 c189 -305 348 -559 354 -565 15 -15 677 -15 677 -1 0 6 -85 135 -188 288
-104 152 -295 436 -425 629 l-237 353 62 31 c313 158 478 414 478 743 0 140
-12 223 -45 322 -108 322 -393 498 -880 544 -60 5 -332 10 -603 10 l-492 0 2
-1462z m1088 928 c147 -35 242 -104 282 -206 18 -44 22 -75 22 -155 -1 -127
-26 -198 -93 -265 -96 -96 -215 -129 -488 -137 l-193 -6 0 398 0 397 198 -4
c141 -3 218 -10 272 -22z"/>
<path d="M7060 11466 l0 -1466 308 2 307 3 3 563 2 562 164 0 163 0 350 -562
350 -563 341 -3 c188 -1 342 0 342 4 0 3 -52 82 -116 176 -447 654 -735 1093
-722 1101 154 90 204 124 269 185 135 127 214 269 244 440 18 100 19 167 5
282 -48 398 -289 622 -765 712 -101 19 -157 21 -677 25 l-568 5 0 -1466z
m1033 939 c175 -30 273 -89 323 -192 27 -54 29 -66 29 -178 -1 -107 -3 -126
-26 -175 -15 -30 -46 -74 -71 -97 -102 -93 -207 -122 -475 -130 l-193 -6 0
397 0 396 164 0 c100 0 197 -6 249 -15z"/>
<path d="M9400 12925 c0 -3 215 -404 478 -892 l477 -888 5 -570 5 -570 308 -3
307 -2 0 570 0 571 481 887 c265 488 483 890 486 895 2 4 -146 7 -330 7 l-335
0 -200 -397 c-111 -219 -248 -490 -305 -602 l-105 -203 -302 601 -303 601
-333 0 c-184 0 -334 -2 -334 -5z"/>
<path d="M3208 12194 c-18 -21 -36 -39 -109 -110 -35 -34 -92 -90 -126 -125
-35 -35 -71 -71 -80 -80 -10 -9 -46 -47 -81 -83 l-62 -67 2 -226 c2 -169 6
-227 15 -230 7 -3 117 100 245 228 l233 233 3 238 c3 207 1 238 -12 238 -8 0
-21 -7 -28 -16z"/>
<path d="M12895 11943 l-235 -238 -2 -200 c-2 -236 -2 -245 10 -257 6 -6 103
84 251 231 l241 241 0 214 c0 209 -3 246 -21 246 -4 0 -114 -107 -244 -237z"/>
<path d="M3222 11293 c-16 -6 -431 -419 -454 -453 -16 -22 -18 -53 -18 -252 0
-150 4 -229 11 -233 6 -4 117 100 250 233 l239 240 0 231 c0 126 -3 232 -7
234 -5 2 -14 2 -21 0z"/>
<path d="M13097 11256 c-20 -18 -37 -38 -37 -44 0 -5 -11 -13 -25 -16 -14 -4
-25 -11 -25 -18 0 -15 -222 -238 -237 -238 -7 0 -13 -6 -13 -12 0 -7 -23 -35
-50 -62 l-49 -49 -3 -211 c-3 -237 -2 -256 17 -256 7 0 91 79 186 175 96 96
179 175 186 175 7 0 13 5 13 10 0 6 20 32 45 58 25 26 48 56 51 67 9 39 -1
448 -11 452 -6 2 -27 -12 -48 -31z"/>
<path d="M3221 10380 c-8 -4 -117 -110 -242 -235 l-229 -228 0 -239 c0 -180 3
-238 12 -238 7 0 119 108 250 240 l238 240 0 229 c0 127 -4 232 -8 235 -4 2
-14 1 -21 -4z"/>
<path d="M12893 10156 l-232 -234 -1 -232 c-1 -128 3 -237 7 -241 5 -5 116
100 248 232 l240 240 0 232 c0 198 -2 232 -15 234 -8 1 -120 -103 -247 -231z"/>
<path d="M12894 9258 l-234 -234 0 -206 c0 -114 -2 -212 -5 -220 -3 -7 1 -22
9 -33 14 -19 27 -7 255 223 l241 244 -2 226 c-2 178 -6 226 -16 230 -8 2 -113
-95 -248 -230z"/>
<path d="M2999 9255 c-123 -124 -230 -237 -237 -250 -9 -18 -12 -80 -10 -242
3 -200 4 -218 20 -215 23 4 467 451 474 477 10 42 -1 448 -12 452 -6 2 -112
-98 -235 -222z"/>
<path d="M12901 8368 l-241 -241 0 -234 c0 -189 3 -233 14 -233 15 0 467 451
478 477 10 26 10 461 -1 467 -4 3 -117 -103 -250 -236z"/>
<path d="M3001 8353 c-125 -125 -233 -238 -239 -250 -18 -33 -17 -473 1 -473
7 0 119 107 250 238 l237 239 0 231 c0 148 -4 233 -10 237 -6 4 -113 -96 -239
-222z"/>
<path d="M12918 7489 c-124 -124 -232 -236 -241 -249 -13 -21 -16 -61 -17
-245 -2 -263 -2 -245 11 -245 5 0 118 108 250 240 l239 240 0 228 c0 125 -4
233 -9 241 -7 10 -65 -42 -233 -210z"/>
<path d="M3017 7461 c-117 -117 -218 -215 -224 -219 -7 -4 -19 -24 -28 -45
-12 -29 -15 -80 -15 -251 0 -130 4 -217 10 -221 10 -6 460 438 479 473 15 28
15 458 0 467 -6 4 -105 -87 -222 -204z"/>
<path d="M12762 6428 c-205 -205 -368 -376 -363 -381 4 -4 174 -8 376 -7 281
0 371 3 377 13 13 19 5 740 -8 744 -6 2 -178 -164 -382 -369z"/>
<path d="M3223 6763 c-6 -2 -89 -83 -185 -180 -95 -96 -179 -181 -186 -187
-16 -13 -32 -30 -72 -74 l-31 -33 3 -122 3 -122 115 -3 115 -2 238 236 c130
129 237 242 237 250 0 11 -19 14 -93 14 -59 0 -97 4 -105 12 -8 8 -12 47 -12
109 0 96 -4 110 -27 102z"/>
<path d="M3773 6428 c-278 -279 -313 -315 -333 -340 -12 -16 -29 -28 -38 -28
-15 0 -15 -2 -2 -10 9 -6 116 -10 252 -10 l237 0 245 244 c174 174 240 246
230 250 -9 3 -120 6 -247 6 l-232 0 -112 -112z"/>
<path d="M4732 6477 c-118 -111 -422 -419 -422 -427 0 -14 31 -15 256 -10
l221 5 237 237 c131 131 235 242 231 248 -4 6 -87 10 -231 10 l-225 0 -67 -63z"/>
<path d="M5438 6296 c-131 -132 -234 -244 -229 -249 11 -11 459 -9 479 2 30
17 472 463 472 477 0 12 -38 14 -242 13 l-243 -2 -237 -241z"/>
<path d="M6351 6300 c-133 -132 -240 -244 -236 -250 4 -6 93 -10 240 -10 l234
0 241 237 c132 130 240 243 240 250 0 10 -50 13 -239 13 l-239 0 -241 -240z"/>
<path d="M7281 6328 c-221 -218 -264 -265 -255 -280 3 -4 103 -8 224 -8 l218
0 43 36 c84 70 450 444 444 454 -4 6 -93 10 -232 10 l-227 0 -215 -212z"/>
<path d="M8381 6531 c-41 -26 -481 -475 -473 -483 16 -16 453 -10 477 6 42 28
475 467 470 477 -8 12 -455 12 -474 0z"/>
<path d="M9041 6301 c-134 -132 -240 -245 -236 -250 4 -7 86 -11 237 -11 l231
0 186 183 c102 100 190 188 195 196 5 8 29 33 53 57 25 23 42 47 38 53 -4 7
-83 11 -234 11 l-228 0 -242 -239z"/>
<path d="M10184 6530 c-35 -14 -488 -466 -480 -479 10 -15 431 -15 475 0 17 6
31 14 31 18 0 4 99 106 220 228 121 121 220 226 220 232 0 13 -433 15 -466 1z"/>
<path d="M11074 6534 c-6 -3 -118 -111 -247 -242 -177 -177 -233 -239 -224
-247 8 -7 90 -9 242 -5 l230 5 227 229 c125 125 229 234 232 241 2 7 -2 16
-10 19 -18 7 -434 7 -450 0z"/>
<path d="M11965 6528 c-34 -20 -475 -470 -469 -479 3 -5 111 -9 239 -9 l235 0
241 240 c132 131 238 244 234 250 -9 15 -454 13 -480 -2z"/>
</g>
</svg>
