<?xml version="1.0" standalone="no"?>
<!DOCTYPE svg PUBLIC "-//W3C//DTD SVG 20010904//EN"
 "http://www.w3.org/TR/2001/REC-SVG-20010904/DTD/svg10.dtd">
<svg version="1.0" xmlns="http://www.w3.org/2000/svg"
 width="685.000000pt" height="686.000000pt" viewBox="0 0 685.000000 686.000000"
 preserveAspectRatio="xMidYMid meet">
<metadata>
Created by potrace 1.16, written by Peter Selinger 2001-2019
</metadata>
<g transform="translate(0.000000,686.000000) scale(0.100000,-0.100000)"
fill="#000000" stroke="none">
<path d="M0 6682 l0 -177 95 -95 95 -95 0 -480 0 -480 -95 95 -95 95 0 -380 0
-380 95 -94 95 -95 0 -480 0 -481 -95 95 -95 95 0 -376 0 -376 95 -94 95 -94
-2 -502 -3 -501 -90 84 -90 84 -3 -1022 c-1 -562 -1 -1023 1 -1025 2 -2 476
-2 1053 -1 l1049 3 -95 92 -95 93 485 0 486 0 93 -95 93 -95 376 0 377 0 -95
95 -95 95 481 0 481 0 90 -90 90 -90 379 0 379 0 -90 90 -90 90 480 0 480 0
90 -89 90 -89 178 -7 177 -7 0 208 0 207 -80 80 -80 80 0 481 0 481 80 -80 80
-80 0 375 0 375 -80 80 -80 80 0 480 0 480 80 -80 80 -80 0 380 0 380 -80 80
-80 80 0 490 0 490 80 -80 80 -80 0 1018 0 1017 -1027 0 -1028 0 80 -80 80
-80 -480 0 -480 0 -80 80 -80 80 -380 0 -380 0 80 -80 80 -80 -480 0 -480 0
-80 80 -80 80 -375 0 -375 0 80 -80 80 -80 -481 0 -481 0 -79 80 -79 80 -202
0 -203 0 0 -178z m1695 -152 l160 -160 -480 0 -480 0 -157 156 c-87 86 -158
158 -158 160 0 2 215 4 478 4 l477 0 160 -160z m1710 0 l160 -160 -480 0 -480
0 -160 160 -160 160 480 0 480 0 160 -160z m1718 3 c86 -86 157 -158 157 -160
0 -1 -215 -3 -478 -3 l-477 0 -160 160 -160 160 480 0 480 0 158 -157z m-4613
-1018 l0 -480 -155 155 -155 155 0 480 0 480 155 -155 155 -155 0 -480z m1622
578 c76 -76 138 -141 138 -145 0 -3 -8 -8 -17 -10 -13 -3 -7 -9 20 -21 22 -9
72 -49 113 -88 102 -99 118 -142 118 -309 0 -107 -3 -136 -24 -199 -14 -41
-30 -76 -36 -78 -11 -4 -23 21 -67 135 -38 96 -85 167 -167 251 -98 99 -187
144 -400 201 -85 23 -167 48 -182 56 -34 18 -48 18 -48 -1 0 -8 33 -33 73 -57
41 -24 104 -75 147 -118 62 -63 81 -90 108 -155 34 -83 52 -169 45 -209 -4
-21 -13 -12 -63 62 -77 115 -185 221 -269 266 -55 29 -110 78 -321 291 -140
140 -257 258 -259 260 -2 3 211 5 475 5 l479 0 137 -137z m2200 -490 c551
-551 625 -629 616 -646 -5 -10 -6 -22 -1 -26 4 -4 128 -123 275 -265 160 -154
272 -255 279 -250 7 4 154 -136 370 -352 l359 -359 0 -480 0 -480 -594 594
c-580 580 -594 595 -589 627 18 113 -74 210 -232 245 -49 10 -69 21 -110 60
l-49 48 27 29 c34 35 29 49 -29 97 -50 41 -95 57 -139 50 -29 -6 -71 35 -900
865 l-870 870 480 0 480 0 627 -627z m1501 230 l397 -396 -2 -483 -3 -484
-880 880 -880 880 485 0 485 0 398 -397z m-4705 -507 c-24 -4 -110 -28 -193
-52 -189 -55 -208 -59 -235 -44 -30 16 -37 5 -14 -21 31 -35 95 -58 195 -69
223 -25 289 -68 430 -285 39 -61 98 -141 132 -180 33 -38 55 -71 49 -73 -6 -2
-56 7 -112 19 -79 16 -118 20 -171 15 -88 -9 -159 -30 -194 -57 l-27 -22 -169
169 -169 169 0 480 0 480 260 -260 260 -260 -42 -9z m5272 -62 c0 -7 9 -16 20
-19 11 -3 20 -10 20 -15 0 -4 -9 -10 -20 -13 -16 -4 -20 -14 -20 -46 l0 -41
60 0 c36 0 60 4 60 11 0 5 -10 9 -22 7 -15 -2 -24 3 -26 15 -7 35 25 14 115
-75 l93 -93 0 -490 0 -490 -155 155 -155 155 0 489 c0 433 2 487 15 476 8 -7
15 -18 15 -26z m-3503 -486 c81 -84 138 -187 173 -313 6 -22 14 -96 17 -165
l5 -125 -42 40 c-143 135 -210 211 -205 230 15 54 14 132 -3 253 -13 91 -15
132 -7 132 6 0 34 -24 62 -52z m823 -280 c0 -4 -104 -115 -231 -247 l-232
-241 -41 37 c-57 51 -61 61 -38 86 42 47 107 155 139 230 55 131 76 228 77
354 l1 113 163 -163 c89 -89 162 -165 162 -169z m-1102 298 c53 -38 114 -133
151 -230 37 -101 28 -100 -85 12 -99 98 -105 106 -106 145 0 59 1 97 5 97 2 0
18 -11 35 -24z m-2108 -1001 l0 -480 -155 155 -155 155 0 482 0 481 155 -156
155 -156 0 -481z m650 708 c63 -20 122 -72 210 -183 36 -46 93 -115 127 -154
34 -39 59 -74 55 -77 -4 -3 -28 -4 -53 -1 -45 4 -51 9 -260 218 l-214 214 41
0 c23 0 65 -8 94 -17z m3883 -1321 l1187 -1187 0 -481 0 -480 -1012 1013
c-557 557 -1015 1015 -1017 1018 -2 3 22 32 54 66 l58 61 -36 36 -37 37 -60
-60 -60 -59 -80 79 c-375 373 -652 654 -651 661 2 13 30 42 254 277 109 114
202 207 205 207 4 0 541 -534 1195 -1188z m-2999 1102 c44 -20 110 -54 146
-75 36 -21 94 -50 130 -64 58 -24 83 -44 223 -183 86 -86 157 -160 157 -164 0
-17 -103 -6 -216 22 -171 44 -309 50 -441 20 -144 -33 -155 -21 -50 54 89 64
145 90 220 101 26 4 47 11 47 15 0 4 -19 12 -42 19 -90 26 -164 78 -230 159
-34 42 -70 86 -80 96 -44 48 28 48 136 0z m-509 -1033 c481 -481 875 -877 875
-881 0 -3 -16 -21 -35 -40 -19 -19 -35 -38 -35 -42 0 -5 43 -64 96 -131 175
-223 188 -241 173 -232 -7 5 -92 64 -188 132 -95 68 -179 123 -185 123 -6 0
-32 -24 -57 -52 l-46 -53 270 -265 c148 -146 273 -266 278 -268 11 -4 72 55
67 66 -3 7 -119 119 -323 312 -55 52 -90 88 -78 80 12 -8 122 -86 244 -173
l222 -158 29 28 c15 15 28 30 28 34 0 4 -37 56 -83 115 -45 60 -126 166 -180
237 -53 70 -95 127 -91 127 3 0 98 -91 211 -202 112 -112 206 -205 209 -207 2
-2 10 1 17 7 11 9 134 -109 594 -568 l580 -580 -481 0 -481 0 -388 388 c-213
213 -387 392 -387 397 0 12 41 55 53 55 5 0 36 -19 69 -42 l60 -42 34 37 c19
20 34 40 34 45 0 4 -13 15 -29 25 -39 23 -353 243 -482 339 -59 43 -113 78
-122 78 -8 0 -22 -11 -31 -25 -9 -14 -22 -25 -29 -25 -6 0 -301 289 -654 643
l-643 642 0 479 c0 264 2 477 5 475 2 -2 398 -397 880 -878z m1309 410 l38
-38 -232 -237 c-128 -130 -237 -236 -244 -236 -11 0 -366 350 -366 362 0 3 15
2 33 -2 17 -5 79 -14 137 -19 220 -21 391 33 542 169 24 22 45 39 48 40 3 0
23 -17 44 -39z m3836 -886 l0 -480 -155 155 -155 155 0 480 0 480 155 -155
155 -155 0 -480z m-3423 444 c-10 -16 12 -40 168 -191 99 -95 221 -213 272
-262 56 -54 97 -86 106 -83 9 3 377 -358 1028 -1009 l1014 -1014 -480 0 -480
0 -901 903 c-653 653 -920 928 -972 997 -39 52 -70 96 -69 97 1 1 97 -90 212
-202 116 -113 213 -204 216 -205 3 0 20 14 38 32 l33 32 -49 45 c-152 141
-211 197 -338 320 -189 185 -167 173 -221 120 l-44 -43 -125 124 c-69 69 -125
129 -125 134 0 5 105 116 233 246 l232 236 132 -129 c114 -113 130 -132 120
-148z m-2749 -1154 l-3 -500 -152 149 -153 149 0 505 0 506 155 -154 155 -155
-2 -500z m1056 -566 c-2 -4 40 -49 93 -100 215 -208 505 -490 628 -611 l129
-128 -489 0 -490 1 -200 195 c-110 107 -287 279 -392 381 l-193 187 0 500 0
500 459 -459 c253 -253 458 -462 455 -466z m5114 -433 l-3 -477 -152 152 -153
152 0 481 0 481 155 -155 155 -156 -2 -478z m-3970 -700 c83 -84 152 -156 152
-160 0 -3 -215 -6 -477 -6 l-478 1 -165 159 -165 159 490 0 490 1 153 -154z
m1716 -3 l156 -158 -477 -3 -477 -2 -160 160 -161 160 482 0 482 0 155 -157z
m1623 95 c43 -43 63 -70 64 -88 0 -20 2 -21 7 -7 6 14 23 1 97 -73 l90 -90
-480 0 -480 0 -82 82 c-46 46 -83 88 -83 96 0 7 -11 17 -25 22 -30 11 -34 34
-5 25 11 -3 20 -2 20 4 0 13 -33 23 -51 16 -9 -3 -31 11 -54 35 l-39 40 479 0
479 0 63 -62z"/>
<path d="M4795 4801 c-48 -22 -69 -44 -90 -94 -22 -53 -19 -87 14 -138 33 -52
352 -368 402 -398 112 -68 262 48 234 181 -6 25 -53 79 -204 231 -238 240
-268 258 -356 218z m80 -100 c17 -10 110 -97 208 -193 180 -177 198 -203 165
-236 -29 -29 -67 -13 -156 67 -143 129 -302 297 -302 320 0 20 32 61 48 61 4
0 21 -9 37 -19z"/>
<path d="M5573 5570 c-32 -13 -174 -151 -171 -166 2 -7 125 -130 273 -273
l270 -262 76 79 c86 89 102 131 74 198 -15 37 -320 345 -399 405 -40 30 -80
36 -123 19z m114 -139 c32 -26 115 -107 186 -179 103 -107 127 -137 127 -160
0 -31 -33 -82 -53 -82 -7 0 -103 91 -215 203 l-203 203 28 26 c25 23 46 35 65
37 4 1 33 -21 65 -48z"/>
<path d="M3905 3879 l-100 -100 275 -269 c151 -148 278 -270 281 -270 3 0 50
48 105 106 l98 107 -39 32 -39 33 -61 -66 -62 -66 -39 31 c-21 17 -63 56 -93
86 l-54 55 36 44 37 45 -36 34 -35 34 -35 -37 c-19 -21 -38 -38 -42 -38 -4 0
-40 33 -80 73 l-72 73 51 49 c73 72 76 81 43 116 -15 16 -30 29 -34 29 -3 0
-50 -45 -105 -101z"/>
<path d="M3077 3042 c-20 -21 -37 -43 -37 -50 0 -6 61 -92 135 -189 74 -98
177 -235 228 -305 l94 -127 38 39 37 38 -41 54 c-23 30 -41 58 -41 62 0 14 55
76 68 76 7 0 38 -19 69 -42 l56 -41 34 36 c18 20 33 41 33 45 0 5 -33 31 -72
57 -77 51 -276 191 -444 312 -56 40 -106 73 -111 73 -5 0 -26 -17 -46 -38z"/>
<path d="M1385 1309 l-100 -101 274 -269 274 -270 38 37 38 37 -125 120 -125
119 37 45 c41 50 40 60 -10 97 l-28 21 -34 -37 c-19 -21 -40 -38 -47 -38 -7 0
-43 31 -80 68 l-68 68 68 67 67 67 -34 35 c-19 19 -37 35 -40 35 -3 0 -50 -45
-105 -101z"/>
</g>
</svg>
