<?xml version="1.0" standalone="no"?>
<!DOCTYPE svg PUBLIC "-//W3C//DTD SVG 20010904//EN"
 "http://www.w3.org/TR/2001/REC-SVG-20010904/DTD/svg10.dtd">
<svg version="1.0" xmlns="http://www.w3.org/2000/svg"
 width="578.000000pt" height="581.000000pt" viewBox="0 0 578.000000 581.000000"
 preserveAspectRatio="xMidYMid meet">
<metadata>
Created by potrace 1.16, written by Peter Selinger 2001-2019
</metadata>
<g transform="translate(0.000000,581.000000) scale(0.100000,-0.100000)"
fill="#000000" stroke="none">
<path d="M0 2905 l0 -2905 2890 0 2890 0 0 2905 0 2905 -2890 0 -2890 0 0
-2905z m5670 0 l0 -2785 -2785 0 -2785 0 0 2785 0 2785 2785 0 2785 0 0 -2785z"/>
<path d="M2197 5020 c-37 -30 -54 -64 -62 -133 -6 -44 -3 -68 10 -103 19 -51
14 -118 -11 -150 -14 -18 -16 -17 -47 21 -110 136 -234 243 -357 306 -65 33
-66 33 -230 37 -311 7 -423 -48 -540 -263 -46 -84 -96 -229 -115 -327 -20
-107 -10 -161 51 -287 47 -97 57 -108 268 -303 37 -33 48 -50 42 -63 -6 -16
-15 -17 -104 -10 -163 13 -213 11 -265 -9 -84 -33 -99 -97 -48 -206 27 -60 29
-69 20 -113 -9 -41 -8 -51 10 -81 29 -46 66 -58 139 -44 69 13 125 53 178 125
36 50 42 54 290 168 145 67 260 115 269 111 31 -11 25 -34 -40 -157 -141 -265
-157 -288 -240 -360 -100 -86 -135 -137 -135 -196 0 -60 36 -98 83 -88 59 12
76 7 149 -39 96 -61 117 -61 181 6 l50 51 -6 141 -6 141 83 204 c45 113 89
208 97 212 8 4 44 21 81 38 88 41 169 122 211 209 31 65 35 68 106 104 41 20
122 50 180 67 90 26 130 31 266 37 193 8 244 24 276 85 29 58 25 92 -17 139
l-36 39 7 74 c7 70 6 74 -21 106 -25 31 -30 32 -72 26 -73 -11 -125 -39 -223
-122 -128 -107 -154 -125 -229 -162 -36 -18 -76 -39 -90 -46 -39 -20 -126 -39
-145 -31 -27 10 -14 49 71 207 94 177 139 235 231 300 82 58 103 93 103 168 0
104 -59 162 -124 121 -39 -23 -62 -19 -136 28 -70 45 -116 51 -153 22z m172
-80 c53 -26 71 -29 111 -24 42 6 49 4 64 -17 9 -13 16 -30 16 -38 0 -24 -49
-88 -90 -116 -67 -47 -173 -190 -239 -325 -80 -162 -76 -155 -94 -158 -11 -2
-20 9 -28 37 -11 38 -10 46 14 94 15 29 32 68 38 87 21 70 46 228 48 306 3
128 26 184 74 184 12 0 51 -14 86 -30z m-669 -29 c95 -50 328 -270 356 -336
21 -50 8 -120 -28 -157 -26 -27 -28 -32 -15 -51 18 -29 37 -107 37 -154 0 -91
-114 -234 -260 -328 -86 -55 -128 -59 -180 -16 -58 47 -69 46 -147 -7 -93 -65
-142 -73 -204 -33 -24 16 -108 93 -186 173 -198 200 -217 248 -172 428 47 191
134 357 210 406 39 25 141 63 224 85 119 32 293 27 365 -10z m1220 -441 c6
-12 9 -46 6 -78 -3 -40 1 -72 15 -111 27 -79 25 -104 -13 -136 l-33 -28 -142
6 c-142 5 -143 5 -235 -28 -51 -18 -127 -47 -168 -64 -41 -17 -81 -31 -87 -31
-14 0 -18 77 -5 96 10 16 44 32 110 52 71 23 200 107 310 204 143 125 161 138
197 138 24 0 38 -6 45 -20z m-742 -380 c20 -29 23 -43 19 -87 -7 -65 -39 -138
-80 -181 -37 -39 -121 -95 -190 -128 -56 -26 -99 -19 -154 22 -48 36 -43 54
13 54 45 0 47 1 179 133 117 115 136 138 147 180 15 56 31 58 66 7z m-559
-304 c7 -9 11 -23 7 -31 -3 -9 -86 -54 -183 -101 -323 -156 -321 -155 -375
-217 -51 -58 -110 -97 -147 -97 -29 0 -48 36 -56 105 -3 33 -17 83 -31 111
-29 59 -25 96 13 121 26 17 72 19 268 14 103 -3 116 -1 215 32 58 19 137 48
175 64 71 30 89 30 114 -1z m214 -163 c10 -6 9 -47 -2 -58 -6 -6 -26 -52 -46
-103 -19 -51 -50 -123 -68 -160 l-32 -67 3 -152 3 -151 -28 -31 c-42 -45 -73
-49 -114 -14 -59 51 -82 63 -121 63 -54 0 -88 16 -88 41 0 12 28 50 70 93 97
99 145 166 214 298 86 164 126 240 132 250 5 8 58 2 77 -9z"/>
<path d="M1724 4539 c-11 -6 -25 -22 -32 -37 -6 -15 -20 -43 -32 -62 -43 -73
-15 -120 71 -120 55 0 90 24 119 81 23 44 25 68 9 103 -18 39 -88 57 -135 35z"/>
<path d="M1424 4216 c-41 -18 -83 -75 -91 -120 -12 -78 78 -116 137 -58 48 49
64 138 30 172 -23 23 -34 24 -76 6z"/>
<path d="M1707 4130 c-7 -27 17 -158 32 -173 14 -14 58 26 76 70 10 23 21 32
42 35 22 2 29 9 31 30 4 35 -17 46 -106 54 -66 6 -69 5 -75 -16z"/>
<path d="M3470 3293 c-61 -23 -110 -97 -104 -155 6 -50 34 -84 218 -267 l175
-174 56 5 c46 4 61 10 90 38 71 69 66 144 -16 234 -28 31 -54 56 -59 56 -9 0
-60 -47 -60 -56 0 -4 23 -31 51 -61 39 -41 50 -59 47 -80 -3 -32 -43 -57 -67
-43 -9 5 -91 85 -183 177 -171 172 -186 194 -152 227 27 27 57 19 104 -29 24
-25 49 -45 55 -45 14 0 55 43 55 57 0 15 -99 103 -128 114 -26 10 -59 11 -82
2z"/>
<path d="M3248 3079 c-16 -11 -28 -26 -28 -32 0 -10 388 -409 453 -465 l28
-25 30 29 c16 15 29 31 29 36 0 8 -466 471 -478 475 -4 1 -19 -7 -34 -18z"/>
<path d="M3151 2986 l-33 -34 41 -75 c22 -41 41 -77 41 -80 0 -3 -34 14 -75
38 -42 25 -79 45 -83 44 -4 0 -19 -15 -35 -34 l-27 -33 42 -25 c24 -13 87 -48
140 -76 54 -29 106 -65 116 -79 11 -15 49 -85 86 -157 91 -177 80 -165 116
-130 16 16 30 34 30 39 0 6 -23 49 -50 96 -27 46 -47 86 -45 88 2 2 44 -19 92
-47 49 -28 92 -51 96 -51 4 0 20 14 37 32 23 24 27 34 18 40 -7 5 -82 45 -167
90 l-154 81 -73 154 c-41 84 -75 153 -77 153 -2 0 -18 -15 -36 -34z"/>
<path d="M2902 2732 c-50 -8 -117 -107 -107 -159 2 -10 4 -24 4 -30 1 -18 262
-295 334 -355 59 -49 62 -50 115 -46 49 4 60 10 93 45 46 50 57 97 35 145 -15
31 -345 370 -380 390 -19 11 -63 16 -94 10z m215 -254 c95 -95 176 -180 179
-190 8 -27 -14 -58 -42 -58 -17 0 -46 20 -92 63 -135 127 -282 285 -282 303 0
22 28 54 48 54 9 0 94 -77 189 -172z"/>
<path d="M2600 2445 l-104 -104 24 -26 c30 -32 40 -32 75 5 16 17 33 29 37 28
5 -2 103 -98 218 -213 l210 -210 32 33 33 32 -215 215 -214 215 37 38 37 38
-28 27 c-15 15 -30 27 -33 27 -2 0 -51 -47 -109 -105z"/>
<path d="M5112 760 c-112 -51 -167 -127 -167 -230 0 -84 28 -141 110 -219 69
-66 130 -91 204 -84 161 16 301 218 236 343 -36 69 -144 94 -235 53 -61 -28
-132 -93 -155 -142 -10 -23 -21 -41 -25 -41 -14 0 -40 72 -40 110 0 73 96 151
168 135 23 -5 34 1 61 29 l34 36 -36 15 c-49 20 -103 19 -155 -5z m255 -230
c62 -37 53 -102 -24 -170 -61 -53 -102 -61 -148 -26 -29 22 -35 33 -35 65 0
45 35 96 88 128 46 28 77 29 119 3z"/>
</g>
</svg>
